<?xml version="1.0" encoding="UTF-8" standalone="no"?> <svg id="Layer_1" data-name="Layer 1" xmlns="http://www.w3.org/2000/svg" viewBox="0 0 128 128"><defs><style>.cls-1{fill:#D65DB1;}</style></defs><title>x</title><path class="cls-1" d="M112.41113,46.2215A48.72739,48.72739,0,0,0,65.72991,2.34771H65.727c-.57663-.02039-1.15036-.032-1.727-.032s-1.15036.01164-1.727.032h-.00292A48.72739,48.72739,0,0,0,15.58887,46.2215a49.27442,49.27442,0,0,0,.65527,14.01689l.05533.332c.0262.12523.09028.466.22425.996l.04659.19512c.09028.40481.21259.86494.35239,1.35712a39.52682,39.52682,0,0,0,6.608,13.0005c8.54064,11.16789,19.523,28.318,37.81155,48.39211a3.59728,3.59728,0,0,0,5.31548,0C84.94629,104.43711,95.92865,87.287,104.46929,76.11915a39.52682,39.52682,0,0,0,6.608-13.0005c.1398-.49218.26211-.95231.35239-1.35712l.04659-.19512c.134-.53.19805-.87079.22425-.996l.05533-.332A49.27441,49.27441,0,0,0,112.41113,46.2215ZM64.00036,80.96257A29.33469,29.33469,0,1,1,93.33506,51.62788,29.33108,29.33108,0,0,1,64.00036,80.96257Z"/></svg>