<?xml version="1.0" ?><svg data-name="Layer 3" height="128" id="Layer_3" viewBox="0 0 128 128" width="128" xmlns="http://www.w3.org/2000/svg"><title/><g style="opacity:0.30000000000000004"><path d="M126.6886,47.66277A30.00059,30.00059,0,0,0,103.177,22.61746,19.68967,19.68967,0,0,1,92.24433,16.0691a37.01139,37.01139,0,0,0-64.2547,15.37177A21.01331,21.01331,0,0,1,17.10747,45.11444C2.9446,52.47292-4.151,71.57328,8.75757,89.49767a16.60222,16.60222,0,0,0,6.35231,4.90944,20.57854,20.57854,0,0,1,10.01954,10.876,28.48779,28.48779,0,0,0,42.6239,12.6366A20.05863,20.05863,0,0,1,84.377,114.97706a29.00072,29.00072,0,0,0,36.03811-33.79264,20.08025,20.08025,0,0,1,2.50953-14.13158A29.83225,29.83225,0,0,0,126.6886,47.66277Z" style="fill:#c9c1f5"/><path d="M61,97.20691V92.793L57.20477,91.528a12.61107,12.61107,0,0,0-1.11957-2.70337l1.789-3.57782-3.121-3.121-3.57788,1.789A12.60307,12.60307,0,0,0,48.472,82.79517l-1.26508-3.79523H42.793L41.528,82.79517a12.60307,12.60307,0,0,0-2.70331,1.11957l-3.57788-1.789-3.121,3.121,1.789,3.57782A12.60485,12.60485,0,0,0,32.79517,91.528L29,92.793v4.41388L32.79517,98.472a12.60436,12.60436,0,0,0,1.11957,2.70331l-1.789,3.57782,3.121,3.12109,3.57788-1.78906a12.60325,12.60325,0,0,0,2.70331,1.11963l1.26508,3.79517h4.41388l1.26508-3.79517a12.60325,12.60325,0,0,0,2.70331-1.11963l3.57788,1.78906,3.121-3.12109-1.789-3.57782A12.61058,12.61058,0,0,0,57.20477,98.472Zm-16,.793a3,3,0,1,1,3-3A3,3,0,0,1,45,97.99994Z" style="fill:#ced8ee"/><g style="opacity:0.5"><path d="M57.87421,85.24677l-.47906-.47906-9.49677,9.49677a2.96527,2.96527,0,0,1-3.63385,3.63385l-9.49683,9.49683.47906.47906,3.57788-1.78906c.32489.1814.666.33551,1.00763.4881l16.741-16.741c-.15265-.34167-.30676-.68274-.4881-1.00763Z" style="fill:#fff"/><path d="M42,94.99994a2.9596,2.9596,0,0,1,3.799-2.87866l9.47485-9.47485-.52069-.52069-3.57788,1.789A12.60307,12.60307,0,0,0,48.472,82.79517l-1.26508-3.79523H42.793L41.528,82.79517a12.60307,12.60307,0,0,0-2.70331,1.11957l-3.57788-1.789-3.121,3.121,1.789,3.57782A12.60485,12.60485,0,0,0,32.79517,91.528L29,92.793v4.41388L32.79517,98.472a12.60436,12.60436,0,0,0,1.11957,2.70331l-1.789,3.57782.52069.52069L42.12134,95.799A2.97,2.97,0,0,1,42,94.99994Z" style="fill:#fff"/></g><path d="M44.99994,101a7.99586,7.99586,0,0,1-7.73779-6,8.00006,8.00006,0,1,0,15.47559,0A7.99586,7.99586,0,0,1,44.99994,101Z" style="fill:#2c4b75;opacity:0.2"/><g style="opacity:0.75"><path d="M33.91473,91.82458l-.72113-1.44214c-.14667.37524-.28723.75378-.39844,1.14551L29,92.793v3L32.79517,94.528A12.60485,12.60485,0,0,1,33.91473,91.82458Z" style="fill:#fff"/><path d="M57.20477,91.528c-.11121-.39166-.25183-.7702-.3985-1.14545l-.72107,1.44208A12.61107,12.61107,0,0,1,57.20477,94.528L61,95.793v-3Z" style="fill:#fff"/><path d="M33.65143,89.36816a16.92582,16.92582,0,0,1,22.69708.00006c-.08954-.18024-.16547-.36835-.26331-.54364l1.789-3.57782-3.121-3.121-3.57788,1.789A12.60307,12.60307,0,0,0,48.472,82.79517l-1.26508-3.79523H42.793L41.528,82.79517a12.60307,12.60307,0,0,0-2.70331,1.11957l-3.57788-1.789-3.121,3.121,1.789,3.57782C33.81689,88.99982,33.741,89.18793,33.65143,89.36816Z" style="fill:#fff"/></g><g style="opacity:0.2"><path d="M33.65143,100.63177a16.92582,16.92582,0,0,0,22.69708-.00006c-.08954.18024-.16547.36835-.26331.54364l1.789,3.57782-3.121,3.121-3.57788-1.789a12.60307,12.60307,0,0,1-2.70331,1.11957L47.20691,111H42.793L41.528,107.20477a12.60307,12.60307,0,0,1-2.70331-1.11957l-3.57788,1.789-3.121-3.121,1.789-3.57782C33.81689,101.00012,33.741,100.812,33.65143,100.63177Z" style="fill:#2c4b75"/></g><path d="M45,87.99994a7,7,0,1,0,7,7A7,7,0,0,0,45,87.99994Zm0,10a3,3,0,1,1,3-3A3,3,0,0,1,45,97.99994Z" style="fill:#eef6ff"/><g style="opacity:0.2"><path d="M45,99a6.99962,6.99962,0,0,1-6.83484-5.50006,7,7,0,1,0,13.66968,0A6.99968,6.99968,0,0,1,45,99Z" style="fill:#2c4b75"/></g><path d="M47.207,112H42.793a1,1,0,0,1-.94873-.68359l-1.10205-3.30615a13.62417,13.62417,0,0,1-1.93164-.80029l-3.1167,1.55859a1,1,0,0,1-1.1543-.1875L31.41895,105.46a1.00033,1.00033,0,0,1-.1875-1.1543l1.55811-3.11621a13.67924,13.67924,0,0,1-.7998-1.93164l-3.30615-1.10205A1.00043,1.00043,0,0,1,28,97.207V92.793a1.00043,1.00043,0,0,1,.68359-.94873l3.30615-1.10205a13.67925,13.67925,0,0,1,.7998-1.93164l-1.55811-3.1167a1.00033,1.00033,0,0,1,.1875-1.1543l3.12061-3.12061a1.00242,1.00242,0,0,1,1.1543-.1875l3.1167,1.55811a13.67925,13.67925,0,0,1,1.93164-.7998l1.10205-3.30615A1.00043,1.00043,0,0,1,42.793,78H47.207a1.00043,1.00043,0,0,1,.94873.68359l1.10205,3.30615a13.67925,13.67925,0,0,1,1.93164.7998l3.11621-1.55811a1.00164,1.00164,0,0,1,1.1543.1875l3.12109,3.12061a1.00033,1.00033,0,0,1,.1875,1.1543L57.21,88.81055a13.62418,13.62418,0,0,1,.80029,1.93164l3.30615,1.10205A1,1,0,0,1,62,92.793V97.207a1,1,0,0,1-.68359.94873l-3.30615,1.10205a13.62418,13.62418,0,0,1-.80029,1.93164l1.55859,3.11621a.99968.99968,0,0,1-.1875,1.1543L55.46,108.58105a1.00149,1.00149,0,0,1-1.1543.1875L51.18945,107.21a13.62417,13.62417,0,0,1-1.93164.80029l-1.10205,3.30615A1,1,0,0,1,47.207,112Zm-3.69336-2h2.97266l1.03711-3.11182a.99984.99984,0,0,1,.67578-.64551,11.61416,11.61416,0,0,0,2.48828-1.03076,1.00117,1.00117,0,0,1,.93506-.02148l2.93311,1.4668,2.10156-2.10156-1.4668-2.93311a1.00117,1.00117,0,0,1,.02148-.93506,11.61416,11.61416,0,0,0,1.03076-2.48828.99984.99984,0,0,1,.64551-.67578L60,96.48633V93.51367l-3.11182-1.03711a.99984.99984,0,0,1-.64551-.67578,11.61416,11.61416,0,0,0-1.03076-2.48828,1.00117,1.00117,0,0,1-.02148-.93506l1.4668-2.93359-2.10156-2.10107-2.93311,1.46631a.99886.99886,0,0,1-.93457-.02148,11.68246,11.68246,0,0,0-2.48926-1.03076,1.00009,1.00009,0,0,1-.67529-.64551L46.48633,80H43.51367l-1.03711,3.11133a1.00009,1.00009,0,0,1-.67529.64551A11.68246,11.68246,0,0,0,39.312,84.7876a1.003,1.003,0,0,1-.93457.02148l-2.93311-1.46631-2.10156,2.10156,1.46631,2.93311a1.00019,1.00019,0,0,1-.02148.93457,11.68246,11.68246,0,0,0-1.03076,2.48926,1.00009,1.00009,0,0,1-.64551.67529L30,93.51367v2.97266l3.11133,1.03711a1.00009,1.00009,0,0,1,.64551.67529A11.68246,11.68246,0,0,0,34.7876,100.688a1.00019,1.00019,0,0,1,.02148.93457l-1.46631,2.93311,2.10107,2.10156,2.93359-1.4668a.99839.99839,0,0,1,.93506.02148,11.61416,11.61416,0,0,0,2.48828,1.03076.99984.99984,0,0,1,.67578.64551ZM61,97.207h0ZM45,99a4,4,0,1,1,4-4A4.00458,4.00458,0,0,1,45,99Zm0-6a2,2,0,1,0,2,2A2.002,2.002,0,0,0,45,93Z" style="fill:#6d6daa"/><path d="M45,103a8,8,0,1,1,8-8A8.00917,8.00917,0,0,1,45,103Zm0-14a6,6,0,1,0,6,6A6.00656,6.00656,0,0,0,45,89Zm0,10a4,4,0,1,1,4-4A4.00458,4.00458,0,0,1,45,99Zm0-6a2,2,0,1,0,2,2A2.002,2.002,0,0,0,45,93Z" style="fill:#6d6daa"/><path d="M99,27.99142V23.50858l-3.85452-1.2849a12.81022,12.81022,0,0,0-1.13707-2.74556l1.817-3.63364-3.16986-3.16986-3.63374,1.817a12.801,12.801,0,0,0-2.74556-1.13722L84.99142,9.5H80.50858l-1.28481,3.85442a12.80138,12.80138,0,0,0-2.74561,1.13722l-3.63374-1.817-3.16986,3.16986,1.817,3.63364a12.80517,12.80517,0,0,0-1.13707,2.74556L66.5,23.50858v4.48283l3.85452,1.28481a12.806,12.806,0,0,0,1.13707,2.74566l-1.817,3.63364,3.16986,3.16986,3.63374-1.817a12.80109,12.80109,0,0,0,2.74561,1.13712L80.50858,42h4.48283l1.28485-3.85452a12.80069,12.80069,0,0,0,2.74556-1.13712l3.63374,1.817,3.16986-3.16986-1.817-3.63364a12.811,12.811,0,0,0,1.13707-2.74566ZM82.75,29A3.25,3.25,0,1,1,86,25.75,3.25,3.25,0,0,1,82.75,29Z" style="fill:#eef6ff"/><g style="opacity:0.2"><path d="M70.79684,31.30779a17.45471,17.45471,0,0,0,23.40632-.00006c-.09234.18587-.17064.37986-.27153.56063l1.8449,3.68962L92.558,38.77653l-3.68968-1.8449a12.99689,12.99689,0,0,1-2.78778,1.15455L84.7759,42H80.2241l-1.30461-3.91382a12.99689,12.99689,0,0,1-2.78778-1.15455L72.442,38.77653,69.22347,35.558l1.8449-3.68962C70.96748,31.68765,70.88918,31.49366,70.79684,31.30779Z" style="fill:#2c4b75"/></g><path d="M82.75,17.625a8.125,8.125,0,1,0,8.125,8.125A8.12505,8.12505,0,0,0,82.75,17.625ZM82.75,29A3.25,3.25,0,1,1,86,25.75,3.25,3.25,0,0,1,82.75,29Z" style="fill:#ced8ee"/><path d="M84.99121,43H80.50879a1.00043,1.00043,0,0,1-.94873-.68359L78.438,38.95117a13.86906,13.86906,0,0,1-1.97461-.81738L73.2915,39.71973a1.00176,1.00176,0,0,1-1.1543-.1875L68.96777,36.3623a.99968.99968,0,0,1-.1875-1.1543l1.58594-3.17139a13.8926,13.8926,0,0,1-.81738-1.97461l-3.36523-1.12207A1.00043,1.00043,0,0,1,65.5,27.99121V23.50879a1.00043,1.00043,0,0,1,.68359-.94873L69.54883,21.438a13.8926,13.8926,0,0,1,.81738-1.97461L68.78027,16.292a.99968.99968,0,0,1,.1875-1.1543l3.16943-3.16992a.99918.99918,0,0,1,1.1543-.1875l3.17188,1.58594a13.86906,13.86906,0,0,1,1.97461-.81738l1.12207-3.36523A1.00043,1.00043,0,0,1,80.50879,8.5h4.48242a1.00043,1.00043,0,0,1,.94873.68359L87.062,12.54883a13.86906,13.86906,0,0,1,1.97461.81738l3.17188-1.58594a1.00021,1.00021,0,0,1,1.1543.1875l3.16943,3.16992a.99968.99968,0,0,1,.1875,1.1543l-1.58594,3.17139a13.8926,13.8926,0,0,1,.81738,1.97461l3.36523,1.12207A1.00043,1.00043,0,0,1,100,23.50879v4.48242a1.00043,1.00043,0,0,1-.68359.94873L95.95117,30.062a13.8926,13.8926,0,0,1-.81738,1.97461L96.71973,35.208a.99968.99968,0,0,1-.1875,1.1543l-3.16943,3.16992a1.002,1.002,0,0,1-1.1543.1875l-3.17187-1.58594a13.86906,13.86906,0,0,1-1.97461.81738l-1.12207,3.36523A1.00043,1.00043,0,0,1,84.99121,43Zm-3.76172-2h3.041l1.05713-3.1709a.99984.99984,0,0,1,.67578-.64551,11.82892,11.82892,0,0,0,2.53076-1.04834.99826.99826,0,0,1,.93506-.02148L92.4585,37.6084,94.6084,35.458l-1.49463-2.98877a1.00117,1.00117,0,0,1,.02148-.93506,11.82892,11.82892,0,0,0,1.04834-2.53076.99984.99984,0,0,1,.64551-.67578L98,27.27051v-3.041l-3.1709-1.05713a.99984.99984,0,0,1-.64551-.67578,11.82892,11.82892,0,0,0-1.04834-2.53076,1.00117,1.00117,0,0,1-.02148-.93506L94.6084,16.042,92.4585,13.8916l-2.98926,1.49463a1.00525,1.00525,0,0,1-.93506-.02148,11.82892,11.82892,0,0,0-2.53076-1.04834.99984.99984,0,0,1-.67578-.64551L84.27051,10.5h-3.041l-1.05713,3.1709a.99984.99984,0,0,1-.67578.64551,11.82892,11.82892,0,0,0-2.53076,1.04834,1.00535,1.00535,0,0,1-.93506.02148L73.0415,13.8916,70.8916,16.042l1.49463,2.98877a1.00117,1.00117,0,0,1-.02148.93506,11.82892,11.82892,0,0,0-1.04834,2.53076.99984.99984,0,0,1-.64551.67578L67.5,24.22949v3.041l3.1709,1.05713a.99984.99984,0,0,1,.64551.67578,11.82892,11.82892,0,0,0,1.04834,2.53076,1.00117,1.00117,0,0,1,.02148.93506L70.8916,35.458l2.1499,2.15039,2.98926-1.49463a.99835.99835,0,0,1,.93506.02148,11.82892,11.82892,0,0,0,2.53076,1.04834.99984.99984,0,0,1,.67578.64551ZM99,27.99121h0ZM82.75,30A4.25,4.25,0,1,1,87,25.75,4.25507,4.25507,0,0,1,82.75,30Zm0-6.5A2.25,2.25,0,1,0,85,25.75,2.25246,2.25246,0,0,0,82.75,23.5Z" style="fill:#6d6daa"/><path d="M117,51.37933V48.62067L114.628,47.83a7.88321,7.88321,0,0,0-.69974-1.68958l1.11816-2.23608-1.95068-1.95068-2.23615,1.11816a7.87753,7.87753,0,0,0-1.68958-.69983L108.37933,40h-2.75867L104.83,42.37195a7.87777,7.87777,0,0,0-1.68961.69983l-2.23615-1.11816L98.95358,43.9043l1.11816,2.23608A7.8801,7.8801,0,0,0,99.372,47.83L97,48.62067v2.75867l2.372.79065a7.8806,7.8806,0,0,0,.69974,1.68964L98.95358,56.0957l1.95068,1.95068,2.23615-1.11816A7.87759,7.87759,0,0,0,104.83,57.628L105.62067,60h2.75867l.79068-2.372a7.87735,7.87735,0,0,0,1.68958-.69977l2.23615,1.11816,1.95068-1.95068-1.11816-2.23608A7.8837,7.8837,0,0,0,114.628,52.17ZM107,52a2,2,0,1,1,2-2A2,2,0,0,1,107,52Z" style="fill:#eef6ff"/><path d="M107,45a5,5,0,1,0,5,5A5,5,0,0,0,107,45Zm0,7a2,2,0,1,1,2-2A2,2,0,0,1,107,52Z" style="fill:#ced8ee"/><path d="M108.37939,61h-2.75879a1,1,0,0,1-.94873-.68359l-.62988-1.88965a8.90334,8.90334,0,0,1-.90918-.37646l-1.78125.89063a1.00151,1.00151,0,0,1-1.1543-.1875l-1.95068-1.95068a1.00033,1.00033,0,0,1-.1875-1.1543l.89063-1.78125a8.90333,8.90333,0,0,1-.37646-.90918l-1.88965-.62988A1,1,0,0,1,96,51.37939V48.62061a1,1,0,0,1,.68359-.94873l1.88965-.62988a8.90333,8.90333,0,0,1,.37646-.90918l-.89062-1.78125a1.00033,1.00033,0,0,1,.1875-1.1543l1.95068-1.95068a1,1,0,0,1,1.1543-.1875l1.78125.89063a8.90334,8.90334,0,0,1,.90918-.37646l.62988-1.88965A1,1,0,0,1,105.62061,39h2.75879a1,1,0,0,1,.94873.68359l.62988,1.88965a8.90334,8.90334,0,0,1,.90918.37646l1.78125-.89062a1.00151,1.00151,0,0,1,1.1543.1875l1.95068,1.95068a1.00033,1.00033,0,0,1,.1875,1.1543l-.89062,1.78125a8.90334,8.90334,0,0,1,.37646.90918l1.88965.62988A1,1,0,0,1,118,48.62061v2.75879a1,1,0,0,1-.68359.94873l-1.88965.62988a8.90334,8.90334,0,0,1-.37646.90918l.89063,1.78125a1.00033,1.00033,0,0,1-.1875,1.1543l-1.95068,1.95068a1.00384,1.00384,0,0,1-1.1543.1875l-1.78125-.89062a8.90334,8.90334,0,0,1-.90918.37646l-.62988,1.88965A1,1,0,0,1,108.37939,61Zm-2.03809-2h1.31738l.5625-1.68848a1.00009,1.00009,0,0,1,.67529-.64551,6.8893,6.8893,0,0,0,1.4751-.61084.99826.99826,0,0,1,.93506-.02148l1.5918.7959.93115-.93115-.7959-1.5918a1.00117,1.00117,0,0,1,.02148-.93506,6.88931,6.88931,0,0,0,.61084-1.4751,1.00009,1.00009,0,0,1,.64551-.67529L116,50.65869V49.34131l-1.68848-.5625a1.00009,1.00009,0,0,1-.64551-.67529,6.88931,6.88931,0,0,0-.61084-1.4751,1.00117,1.00117,0,0,1-.02148-.93506l.7959-1.5918-.93115-.93115-1.5918.7959a1.00385,1.00385,0,0,1-.93506-.02148,6.8893,6.8893,0,0,0-1.4751-.61084,1.00009,1.00009,0,0,1-.67529-.64551L107.65869,41h-1.31738l-.5625,1.68848a1.00009,1.00009,0,0,1-.67529.64551,6.8893,6.8893,0,0,0-1.4751.61084,1.00394,1.00394,0,0,1-.93506.02148l-1.5918-.7959-.93115.93115.7959,1.5918a1.00117,1.00117,0,0,1-.02148.93506,6.88931,6.88931,0,0,0-.61084,1.4751,1.00009,1.00009,0,0,1-.64551.67529L98,49.34131v1.31738l1.68848.5625a1.00009,1.00009,0,0,1,.64551.67529,6.88931,6.88931,0,0,0,.61084,1.4751,1.00117,1.00117,0,0,1,.02148.93506l-.7959,1.5918.93115.93115,1.5918-.7959a.99835.99835,0,0,1,.93506.02148,6.8893,6.8893,0,0,0,1.4751.61084,1.00009,1.00009,0,0,1,.67529.64551ZM117,51.37939h0ZM107,53a3,3,0,1,1,3-3A3.00328,3.00328,0,0,1,107,53Zm0-4a1,1,0,1,0,1,1A1.0013,1.0013,0,0,0,107,49Z" style="fill:#6d6daa"/><path d="M107.50049,37.00879l-.03564-.00049Q107.2334,37.00024,107,37a1,1,0,0,1,0-2q.2688,0,.53516.00928a1.00006,1.00006,0,0,1-.03467,1.99951Z" style="fill:#fff"/><path d="M105.83691,64.95215c-.02734,0-.05469-.001-.08252-.00342q-.54565-.04468-1.07959-.12793a1.00018,1.00018,0,1,1,.30762-1.97656q.46289.07251.93506.11133a1,1,0,0,1-.08057,1.99658Zm4.03516-.24707a1.00007,1.00007,0,0,1-.20361-1.979c.30811-.06445.61328-.13916.91357-.22559a1.00009,1.00009,0,1,1,.55078,1.92285q-.52075.14868-1.05518.26074A1.02365,1.02365,0,0,1,109.87207,64.70508Zm-8.90771-1.06885a.99193.99193,0,0,1-.43115-.09814q-.49219-.23511-.96338-.50488a.99991.99991,0,0,1,.99219-1.73633q.408.23291.83447.4375a.99995.99995,0,0,1-.43213,1.90186Zm13.57959-.83984a1,1,0,0,1-.54-1.84229q.397-.25415.77393-.53662A1.0002,1.0002,0,0,1,115.9751,62.02q-.43433.32446-.89307.61865A.993.993,0,0,1,114.54395,62.79639Zm-17.665-2.123a.99646.99646,0,0,1-.72266-.30908q-.37646-.39331-.72266-.8125a.99992.99992,0,0,1,1.542-1.27344q.30029.36328.626.7041a1,1,0,0,1-.72266,1.69092Zm21.354-1.31738a.99992.99992,0,0,1-.80078-1.59814q.282-.37646.53516-.7749a1.00005,1.00005,0,0,1,1.68652,1.0752q-.293.45923-.61816.896A.99927.99927,0,0,1,118.23291,59.356ZM94.10547,56.46a1.00041,1.00041,0,0,1-.92139-.61035q-.21094-.49878-.38721-1.01514a1.00012,1.00012,0,0,1,1.89355-.64453q.15234.44751.33545.87939A1.0009,1.0009,0,0,1,94.10547,56.46Zm26.36426-1.62842a1.00182,1.00182,0,0,1-.9624-1.27344c.085-.30029.16016-.60547.22363-.91455a1.00023,1.00023,0,0,1,1.959.40527q-.11133.5354-.25879,1.05518A1.00011,1.00011,0,0,1,120.46973,54.83154Zm.479-5.02246a1.00049,1.00049,0,0,1-.99561-.91553q-.04028-.47314-.11279-.93652a.99992.99992,0,0,1,1.97559-.31055q.08423.53247.13037,1.07813a1.0006,1.0006,0,0,1-.91211,1.08105C121.00537,49.80811,120.97705,49.80908,120.94873,49.80908Zm-1.32422-4.86816a.99982.99982,0,0,1-.90186-.56689q-.20435-.42554-.439-.8335a1.00021,1.00021,0,0,1,1.73535-.99512q.26953.47095.50635.9624a1,1,0,0,1-.90088,1.43311Zm-2.97021-4.07959a.99465.99465,0,0,1-.68945-.27588q-.34131-.32446-.70605-.62549a1,1,0,0,1,1.27246-1.543q.41895.3457.8125.72021a1,1,0,0,1-.68945,1.72412Zm-4.2207-2.76709a.99052.99052,0,0,1-.3877-.0791q-.43286-.18237-.88086-.334a1,1,0,1,1,.64063-1.89453q.51782.175,1.0166.38574a1.00026,1.00026,0,0,1-.38867,1.92188Z" style="fill:#fff"/><path d="M93.0083,51.5a1.00018,1.00018,0,0,1-.999-.96484Q91.99976,50.26855,92,50a1,1,0,0,1,2,0q0,.23364.0083.46484a1.00013,1.00013,0,0,1-.96436,1.03467Z" style="fill:#fff"/><path d="M23,96a1,1,0,0,1-1-1q0-.52515.02344-1.04541a1.02329,1.02329,0,0,1,1.04443-.95361,1.00065,1.00065,0,0,1,.95361,1.04443Q23.99951,94.52,24,95A1,1,0,0,1,23,96Z" style="fill:#fff"/><path d="M50.07666,117.41064a1,1,0,0,1-.229-1.97314c.62891-.14893,1.25586-.32812,1.86426-.5332a1.00011,1.00011,0,1,1,.63867,1.89551c-.6665.22461-1.354.42139-2.043.584A.98713.98713,0,0,1,50.07666,117.41064Zm5.66553-2.20654a1,1,0,0,1-.48975-1.87256c.5625-.31494,1.11621-.65967,1.64551-1.0249a1.0001,1.0001,0,0,1,1.13574,1.64648c-.58105.40039-1.1875.77832-1.80371,1.12354A.9973.9973,0,0,1,55.74219,115.2041Zm4.84082-3.67432a1,1,0,0,1-.708-1.70605c.45313-.45459.89209-.9375,1.30469-1.43555a1.0001,1.0001,0,0,1,1.54,1.27637c-.45166.54492-.93213,1.07373-1.42871,1.57129A.99714.99714,0,0,1,60.583,111.52979Zm3.65674-4.85449a1,1,0,0,1-.873-1.48584c.313-.563.60352-1.14746.86328-1.73682a.99979.99979,0,0,1,1.83008.80566c-.28418.64648-.60254,1.28662-.94531,1.90283A.99979.99979,0,0,1,64.23975,106.67529Zm2.18945-5.6709a.98806.98806,0,0,1-.228-.02637.99928.99928,0,0,1-.74658-1.20068c.14551-.62451.26367-1.26611.35107-1.90625a.99991.99991,0,0,1,1.98145.27051c-.0957.70166-.2251,1.40479-.38525,2.08984A.9999.9999,0,0,1,66.4292,101.00439Zm.54492-6.05273a1.00007,1.00007,0,0,1-.998-.95264c-.03027-.647-.09082-1.29687-.1792-1.93213a.99983.99983,0,1,1,1.98047-.27637c.09717.69531.16309,1.40674.19678,2.11377a1.00077,1.00077,0,0,1-.95166,1.04639ZM23.57764,90.97461a1.00039,1.00039,0,0,1-.97461-1.22754c.16113-.68945.356-1.37793.57959-2.04541a.99995.99995,0,1,1,1.89648.63477c-.20361.60889-.38135,1.23682-.52881,1.86572A.99987.99987,0,0,1,23.57764,90.97461ZM65.856,88.979a1.00083,1.00083,0,0,1-.94775-.68115c-.20508-.60986-.44189-1.21777-.70312-1.80713a.99988.99988,0,0,1,1.82813-.81055c.28613.64551.54541,1.311.77051,1.979A1.00114,1.00114,0,0,1,65.856,88.979ZM25.769,85.30518a1,1,0,0,1-.87256-1.48682c.34229-.61377.71826-1.22168,1.11865-1.80566a1.00005,1.00005,0,0,1,1.65039,1.12988c-.36572.53418-.70947,1.08887-1.022,1.64941A1.00006,1.00006,0,0,1,25.769,85.30518Zm37.36914-1.76123a.99855.99855,0,0,1-.82471-.43311c-.36475-.52979-.75928-1.0498-1.17236-1.5459a1.00023,1.00023,0,0,1,1.53711-1.28027c.45215.543.88379,1.1123,1.28271,1.69238a1,1,0,0,1-.82275,1.56689ZM29.43359,80.45361a1,1,0,0,1-.708-1.70654c.50049-.501,1.02832-.9834,1.56934-1.43311a1,1,0,0,1,1.27832,1.53809c-.49316.41016-.9751.8501-1.43164,1.30811A.99867.99867,0,0,1,29.43359,80.45361Zm29.60156-1.39551a.99474.99474,0,0,1-.6377-.23c-.499-.41357-1.02051-.80713-1.54932-1.16895A1.00005,1.00005,0,1,1,57.978,76.00879c.5791.39648,1.14941.82666,1.6958,1.2793a1,1,0,0,1-.63867,1.77ZM34.2793,76.78516A1,1,0,0,1,33.79,74.9126c.6167-.34521,1.25586-.66455,1.8999-.94971a.99988.99988,0,0,1,.81055,1.82813c-.58789.26074-1.17139.55225-1.73389.8667A.99685.99685,0,0,1,34.2793,76.78516Zm19.58643-.92529a1.00314,1.00314,0,0,1-.40332-.08545c-.58936-.26025-1.19775-.49512-1.80811-.69873a1.0001,1.0001,0,1,1,.63281-1.89746c.66943.22363,1.33643.481,1.98291.76611a1.00038,1.00038,0,0,1-.4043,1.91553ZM39.94238,74.584a1,1,0,0,1-.22754-1.97363c.68945-.16211,1.39209-.293,2.08838-.38965a1.00018,1.00018,0,0,1,.27441,1.98145c-.63477.08789-1.27588.20752-1.90576.35547A1.00047,1.00047,0,0,1,39.94238,74.584Zm8.07715-.37842a1.014,1.014,0,0,1-.1377-.00928c-.63623-.0874-1.28613-.146-1.93115-.1748a1,1,0,0,1-.95459-1.04346,1.01355,1.01355,0,0,1,1.04346-.95459c.70557.03125,1.41748.0957,2.11475.19141a1,1,0,0,1-.13477,1.99072Z" style="fill:#fff"/><path d="M45,118a1,1,0,0,1,0-2q.47974,0,.95459-.02148a1.01522,1.01522,0,0,1,1.04443.95361,1.00065,1.00065,0,0,1-.95361,1.04443Q45.52539,118,45,118Z" style="fill:#fff"/><circle cx="14.99941" cy="69.99941" r="3" style="fill:#ced8ee" transform="translate(-13.6085 4.37558) rotate(-11.45982)"/><path d="M14.99121,74.00049a4.00051,4.00051,0,1,1,3.92822-4.7959h0a4.00592,4.00592,0,0,1-3.92822,4.7959ZM15,67.999a2.01508,2.01508,0,0,0-.39795.04,2,2,0,1,0,2.35742,1.563h0A2.0036,2.0036,0,0,0,15,67.999Z" style="fill:#6d6daa"/><path d="M15,68a1,1,0,0,1-1-1V66a1,1,0,0,1,2,0v1A1,1,0,0,1,15,68Z" style="fill:#6d6daa"/><path d="M15,75a1,1,0,0,1-1-1V73a1,1,0,0,1,2,0v1A1,1,0,0,1,15,75Z" style="fill:#6d6daa"/><path d="M12,71H11a1,1,0,0,1,0-2h1a1,1,0,0,1,0,2Z" style="fill:#6d6daa"/><path d="M19,71H18a1,1,0,0,1,0-2h1a1,1,0,0,1,0,2Z" style="fill:#6d6daa"/><path d="M17.12109,68.87891a1,1,0,0,1-.707-1.707l.70752-.70752a.99989.99989,0,0,1,1.41406,1.41406l-.70752.70752A.99676.99676,0,0,1,17.12109,68.87891Z" style="fill:#6d6daa"/><path d="M12.17139,73.82861a1,1,0,0,1-.707-1.707l.70752-.70752a.99989.99989,0,0,1,1.41406,1.41406l-.70752.70752A.99676.99676,0,0,1,12.17139,73.82861Z" style="fill:#6d6daa"/><path d="M17.82861,73.82861a.99676.99676,0,0,1-.707-.293l-.70752-.70752a.99989.99989,0,0,1,1.41406-1.41406l.70752.70752a1,1,0,0,1-.707,1.707Z" style="fill:#6d6daa"/><path d="M12.87891,68.87891a.99676.99676,0,0,1-.707-.293l-.70752-.70752a.99989.99989,0,0,1,1.41406-1.41406l.70752.70752a1,1,0,0,1-.707,1.707Z" style="fill:#6d6daa"/><path d="M16,63.06055a1.06272,1.06272,0,0,1-.124-.00732,7.11741,7.11741,0,0,0-.87646-.05371,1,1,0,0,1,0-2,9.18565,9.18565,0,0,1,1.12158.06836A1.0001,1.0001,0,0,1,16,63.06055Z" style="fill:#fff"/><path d="M14.99951,78.99951a9.14592,9.14592,0,0,1-1.16992-.07471.99992.99992,0,1,1,.25586-1.9834,7.25489,7.25489,0,0,0,1.84033-.002,1,1,0,0,1,.25781,1.9834A9.23049,9.23049,0,0,1,14.99951,78.99951Zm-4.89062-1.64746a.99854.99854,0,0,1-.60547-.20459,9.047,9.047,0,0,1-1.67334-1.66162,1,1,0,1,1,1.582-1.22363,7.0257,7.0257,0,0,0,1.3042,1.29443,1,1,0,0,1-.60742,1.79541Zm9.791-.00781A1,1,0,0,1,19.292,75.5498a7.05282,7.05282,0,0,0,1.30176-1.29639.99989.99989,0,1,1,1.584,1.2207,9.04934,9.04934,0,0,1-1.6709,1.66455A.99548.99548,0,0,1,19.8999,77.34424ZM22.97949,72.022a.96254.96254,0,0,1-.12891-.0083.99967.99967,0,0,1-.86426-1.11914A7.08266,7.08266,0,0,0,21.98,69.05811a1.00013,1.00013,0,1,1,1.98242-.2666,9.13239,9.13239,0,0,1,.08057,1.208,8.99925,8.99925,0,0,1-.07324,1.1499A.99989.99989,0,0,1,22.97949,72.022ZM21.354,66.09375a.99922.99922,0,0,1-.78906-.38477,7.02419,7.02419,0,0,0-1.31006-1.28809A1.0002,1.0002,0,1,1,20.46,62.82422a9.05594,9.05594,0,0,1,1.68213,1.6543,1,1,0,0,1-.78809,1.61523Z" style="fill:#fff"/><path d="M7.0166,71.998a.99968.99968,0,0,1-.99072-.877,9.11866,9.11866,0,0,1-.06982-1.12158,1,1,0,1,1,2,0,7.192,7.192,0,0,0,.0542.87549.99933.99933,0,0,1-.86914,1.11523A.97993.97993,0,0,1,7.0166,71.998Z" style="fill:#fff"/></g><path d="M66.1913,47.95857a22.879,22.879,0,0,0,.52449-3.58992l2.88055-.63109a1.49984,1.49984,0,0,0,1.17706-1.54105l-.07369-1.45663a1.50006,1.50006,0,0,0-1.32658-1.41452l-2.92953-.33715a22.88034,22.88034,0,0,0-.88411-3.51854l2.41746-1.68387a1.5,1.5,0,0,0,.49774-1.87422l-.62555-1.31773a1.5,1.5,0,0,0-1.76693-.799l-2.83294.80872a23.033,23.033,0,0,0-2.16843-2.90782l1.59152-2.48471a1.4998,1.4998,0,0,0-.25734-1.92183l-1.08223-.97806a1.5001,1.5001,0,0,0-1.93811-.06207l-2.31134,1.83421a23.036,23.036,0,0,0-3.11189-1.86395l.51887-2.9A1.50032,1.50032,0,0,0,53.517,17.642l-1.37407-.4893a1.50007,1.50007,0,0,0-1.81442.68435l-1.43123,2.57511a22.88129,22.88129,0,0,0-3.58987-.52461l-.63115-2.88048A1.49992,1.49992,0,0,0,43.13521,15.83l-1.45676.0737a1.49992,1.49992,0,0,0-1.41439,1.32658l-.33722,2.92947a22.88129,22.88129,0,0,0-3.51859.88423l-1.68381-2.41752a1.50007,1.50007,0,0,0-1.87422-.49774l-1.31768.62548a1.50038,1.50038,0,0,0-.79907,1.767l.8089,2.83287a23.036,23.036,0,0,0-2.90788,2.16849L26.14983,23.931a1.5001,1.5001,0,0,0-1.92195.25735l-.978,1.08229a1.4998,1.4998,0,0,0-.06207,1.938L25.022,29.52c-.21782.30634,6.45595,4.32908,6.228,4.66748-.25214.37436,1.56922,3.9956,1.1875,3.75-4.03125-2.59375-8.21875-3.46875-9.50866-5.1665l-2.87024-.66455a1.5,1.5,0,0,0-1.7243.88721l-.55817,1.34766a1.5,1.5,0,0,0,.5918,1.84668l2.49951,1.55957a22.86612,22.86612,0,0,0-.7052,3.55872l-2.90881.48474A1.50006,1.50006,0,0,0,16,43.27075v1.4585a1.49984,1.49984,0,0,0,1.25342,1.47961l2.90881.48474a22.86483,22.86483,0,0,0,.7052,3.55884L18.36792,51.812a1.5,1.5,0,0,0-.5918,1.84668l.55817,1.34741a1.50025,1.50025,0,0,0,1.72424.88745l2.8703-.66467a23.01959,23.01959,0,0,0,2.01868,3.01379l-1.715,2.401a1.5,1.5,0,0,0,.15991,1.9325l1.03143,1.03149a1.50009,1.50009,0,0,0,1.9325.15979l2.40106-1.715a23.03114,23.03114,0,0,0,3.01373,2.01868l-.66473,2.87024a1.5,1.5,0,0,0,.88733,1.72412l1.34772.55823A1.49981,1.49981,0,0,0,35.188,68.632l1.55951-2.49939a22.8811,22.8811,0,0,0,3.55878.7052l.4848,2.90881A1.49992,1.49992,0,0,0,42.27069,71h1.45862a1.49992,1.49992,0,0,0,1.47961-1.25342l.4848-2.90881a22.8811,22.8811,0,0,0,3.55878-.7052L50.812,68.632a1.49987,1.49987,0,0,0,1.84662.5918l1.34766-.55823a1.49989,1.49989,0,0,0,.88733-1.72412l-.66473-2.87024a23.03114,23.03114,0,0,0,3.01373-2.01868l2.40106,1.715a1.50009,1.50009,0,0,0,1.9325-.15979l1.03143-1.03149a1.5,1.5,0,0,0,.15991-1.9325l-1.715-2.401a23.0261,23.0261,0,0,0,2.01874-3.01379c.63711-1.31222-8.36289-2.89555-8.36289-2.89555S52.11087,49.405,52.375,48.66667c.25227-.70517,3.36437.78521,3.45833.5C55.98768,48.69819,66.04593,48.45076,66.1913,47.95857ZM43,49a5,5,0,1,1,5-5A5.00009,5.00009,0,0,1,43,49Z" style="fill:#ced8ee"/><path d="M23.02023,32.70922,20.15179,32.037a1.50018,1.50018,0,0,0-1.72662.88282L17.86343,34.266a1.50009,1.50009,0,0,0,.587,1.84822l2.49537,1.566c-.2108.74024,1.448-2.25293,2.919-4.27305Z" style="fill:#fff"/><path d="M25.81522,31.03371a25.06412,25.06412,0,0,1,17.059-8.19088A24.00578,24.00578,0,0,1,66.25057,37.75733a22.96028,22.96028,0,0,0-.61051-2.24328L68.062,33.83657a1.5,1.5,0,0,0,.50263-1.87291l-.6221-1.3193a1.50021,1.50021,0,0,0-1.76484-.80369l-2.83509.80144a23.01828,23.01828,0,0,0-2.16076-2.91349l1.598-2.48054a1.5,1.5,0,0,0-.25232-1.92261l-1.07967-.98077a1.5,1.5,0,0,0-1.93794-.06713l-2.31613,1.8281a23.02137,23.02137,0,0,0-3.107-1.872l.52645-2.89873a1.50018,1.50018,0,0,0-.96893-1.67981l-1.37279-.493a1.50014,1.50014,0,0,0-1.8162.6796l-1.438,2.57136a22.87476,22.87476,0,0,0-3.58854-.53387l-.62362-2.88224a1.49987,1.49987,0,0,0-1.53791-1.181l-1.45694.06989a1.5,1.5,0,0,0-1.41786,1.32281l-.34487,2.9287a22.874,22.874,0,0,0-3.5209.87491l-1.67748-2.42192a1.50014,1.50014,0,0,0-1.87291-.50263l-1.3193.62216a1.50018,1.50018,0,0,0-.80369,1.76484l.8015,2.835a23.0132,23.0132,0,0,0-2.91354,2.16082l-2.48054-1.598a1.5,1.5,0,0,0-1.92261.25232l-.98077,1.07961a1.5,1.5,0,0,0-.06713,1.93794l1.82811,2.31619Z" style="fill:#fff"/><g style="opacity:0.2"><path d="M63.10373,55.28954a23.01829,23.01829,0,0,1-2.02655,3.00838l1.70874,2.4056a1.5,1.5,0,0,1-.165,1.93207l-1.03413,1.02867a1.5,1.5,0,0,1-1.93291.15486l-2.39657-1.7213a23.02137,23.02137,0,0,1-3.019,2.01085l.65723,2.87191a1.50018,1.50018,0,0,1-.89183,1.722l-1.349.5547a1.50014,1.50014,0,0,1-1.84513-.59662l-1.553-2.50358a22.87476,22.87476,0,0,1-3.56067.6959l-.4924,2.90754A1.49987,1.49987,0,0,1,43.72072,71.01l-1.45861-.00381A1.5,1.5,0,0,1,40.78577,69.749l-.4772-2.91007a22.874,22.874,0,0,1-3.55692-.7145l-1.566,2.49543a1.50014,1.50014,0,0,1-1.84822.587L31.99126,68.645a1.50018,1.50018,0,0,1-.88282-1.72662L31.78068,64.05a23.0132,23.0132,0,0,1-3.00845-2.02661l-2.4056,1.70874a1.5,1.5,0,0,1-1.93207-.165l-1.02867-1.03406a1.5,1.5,0,0,1-.15486-1.93291l1.7213-2.39663a23.0248,23.0248,0,0,1-2.01085-3.01894l-2.87191.65717a1.50018,1.50018,0,0,1-1.722-.89183l-.5547-1.349a1.50009,1.50009,0,0,1,.59668-1.84513l2.50352-1.553a22.9799,22.9799,0,0,1-.49632-2.27139,23.99807,23.99807,0,0,0,41.92834,6.3745Z" style="fill:#2c4b75"/></g><g style="opacity:0.5"><path d="M61.18183,27.72861l1.598-2.48054a1.5,1.5,0,0,0-.25232-1.92261l-.45457-.4129L45.26234,41.96423a2.99076,2.99076,0,0,1-4.23815,4.216L24.00154,63.11417l.43307.4354a1.5,1.5,0,0,0,1.93207.1649l2.4056-1.70868c.11122.08836.23107.1657.34395.252l32.33292-34.197C61.35777,27.95195,61.27514,27.83572,61.18183,27.72861Z" style="fill:#fff"/><path d="M41.57814,41.39771l15.4543-17.39815a22.99672,22.99672,0,0,0-2.94566-1.76592l.52645-2.89873a1.50018,1.50018,0,0,0-.96893-1.67981l-1.37279-.493a1.50014,1.50014,0,0,0-1.8162.6796l-1.438,2.57136a22.87476,22.87476,0,0,0-3.58854-.53387l-.62362-2.88224a1.49987,1.49987,0,0,0-1.53791-1.181l-1.45694.06989a1.5,1.5,0,0,0-1.41786,1.32281l-.34487,2.9287a22.874,22.874,0,0,0-3.5209.87491l-1.67748-2.42192a1.50014,1.50014,0,0,0-1.87291-.50263l-1.3193.62216a1.50018,1.50018,0,0,0-.80369,1.76484l.8015,2.835a23.0132,23.0132,0,0,0-2.91354,2.16082l-2.48054-1.598a1.5,1.5,0,0,0-1.92261.25232l-.98077,1.07961a1.5,1.5,0,0,0-.06713,1.93794l1.82811,2.31619c-.24069.25234,1.44474,1.806,1.22544,2.07266-.13192.16039,4.75554,1.8278,4.65625,2.375-.07938.43748,2.00893,3.43711,1.9375,3.84375s-7.30006-2.97245-7.375-2.84375c-.24361.41837-2.45522-2.57621-2.54227-2.197L20.15179,32.037a1.50018,1.50018,0,0,0-1.72662.88282L17.86343,34.266a1.50009,1.50009,0,0,0,.587,1.84822l2.49537,1.566a22.8811,22.8811,0,0,0-.7145,3.55692l-2.91.4772A1.49993,1.49993,0,0,0,16.064,43.19071l-.00381,1.45861a1.49987,1.49987,0,0,0,1.24955,1.48282l2.90748.4924a22.88187,22.88187,0,0,0,.6959,3.56067l-2.50352,1.553a1.50009,1.50009,0,0,0-.59668,1.84513l.5547,1.34893a1.5,1.5,0,0,0,1.72186.89183l2.872-.65711a23.00126,23.00126,0,0,0,1.89755,2.86264L40.47695,42.49317A2.99225,2.99225,0,0,1,41.57814,41.39771Z" style="fill:#fff"/></g><path d="M61.03784,47.93474A18.01266,18.01266,0,0,0,42.86156,24.85538a18.70292,18.70292,0,0,0-13.731,7.29837c-.31406.40209,3.27695,4.17038,2.99443,4.59625-.364.54865-4.59073-2.23763-4.89884-1.65358A19.079,19.079,0,0,0,25,44a18.0017,18.0017,0,0,0,33.15531,9.71577c.18-.28018-5.084-1.66468-4.822-2.13244L52.54167,48.25l4.78355,1.44291ZM43,49a5,5,0,1,1,5-5A5.00009,5.00009,0,0,1,43,49Z" style="fill:#ced8ee"/><path d="M43.72949,72h-1.459a2.49188,2.49188,0,0,1-2.46582-2.08887l-.36328-2.17969c-.75-.11182-1.498-.25977-2.23633-.44287l-1.16895,1.87256a2.49088,2.49088,0,0,1-3.07764.98633l-1.34766-.55811a2.49082,2.49082,0,0,1-1.47852-2.87354l.498-2.15137c-.64844-.39111-1.28125-.81543-1.89307-1.26855l-1.7998,1.28564a2.49188,2.49188,0,0,1-3.22021-.26611L22.68555,63.2832a2.49194,2.49194,0,0,1-.2666-3.22119l1.28516-1.79883c-.45264-.61133-.877-1.24463-1.26855-1.89355l-2.15137.498a2.48908,2.48908,0,0,1-2.87354-1.479l-.55811-1.34717a2.49149,2.49149,0,0,1,.98633-3.07812l1.87256-1.16846c-.18311-.73828-.33105-1.48633-.44287-2.23633l-2.17969-.36328A2.49188,2.49188,0,0,1,15,44.72949V43.271a2.49239,2.49239,0,0,1,2.08887-2.46631l2.17969-.36328c.11182-.75.26025-1.498.44336-2.23633l-1.873-1.16895a2.49106,2.49106,0,0,1-.98633-3.07764l.55811-1.34766a2.49168,2.49168,0,0,1,2.87354-1.47852l2.87012.66455a.9999.9999,0,0,1-.45117,1.94824L19.833,33.08057a.50135.50135,0,0,0-.57471.2959l-.55811,1.34766a.498.498,0,0,0,.19727.61523l2.499,1.56006a.99917.99917,0,0,1,.43311,1.11914,22.01662,22.01662,0,0,0-.67432,3.40332,1.00039,1.00039,0,0,1-.82861.87061l-2.90869.48486A.499.499,0,0,0,17,43.271v1.4585a.49884.49884,0,0,0,.418.49316l2.90869.48486a.99986.99986,0,0,1,.82861.87061,21.9819,21.9819,0,0,0,.67432,3.40332.99917.99917,0,0,1-.43311,1.11914l-2.499,1.55957a.49823.49823,0,0,0-.19727.61572l.55811,1.34766a.49563.49563,0,0,0,.57471.2959l2.87012-.66455a.997.997,0,0,1,1.09766.48486,22.08586,22.08586,0,0,0,1.93115,2.88281,1.0008,1.0008,0,0,1,.0293,1.20117l-1.71484,2.40088a.49869.49869,0,0,0,.05322.64453l1.03125,1.03174a.49856.49856,0,0,0,.644.05322l2.40137-1.71533a.99941.99941,0,0,1,1.20068.0293,22.17408,22.17408,0,0,0,2.8833,1.93115.99919.99919,0,0,1,.48486,1.09766L32.08057,67.167a.49839.49839,0,0,0,.29541.57471l1.34814.55811a.49851.49851,0,0,0,.61523-.19727l1.56006-2.499a1.00091,1.00091,0,0,1,1.11914-.43311,21.9819,21.9819,0,0,0,3.40332.67432.99986.99986,0,0,1,.87061.82861l.48486,2.90869a.49846.49846,0,0,0,.49316.418h1.459a.49846.49846,0,0,0,.49316-.418l.48486-2.90869a.99986.99986,0,0,1,.87061-.82861,21.9819,21.9819,0,0,0,3.40332-.67432.999.999,0,0,1,1.11914.43311l1.55957,2.499a.49932.49932,0,0,0,.61572.19727l1.34766-.55811a.49818.49818,0,0,0,.2959-.57471l-.66455-2.87012a.99919.99919,0,0,1,.48486-1.09766,22.17408,22.17408,0,0,0,2.8833-1.93115.99935.99935,0,0,1,1.20068-.0293l2.40088,1.71484a.49881.49881,0,0,0,.645-.05322l1.03027-1.03125a.49819.49819,0,0,0,.0542-.644l-1.71533-2.40137a1.0008,1.0008,0,0,1,.0293-1.20117,22.12658,22.12658,0,0,0,1.5498-2.22949l-.58594-.58252-.96533.1377a1.00044,1.00044,0,0,1-.64014-.123l-1.44238-.82959-2.28369-.03711a.999.999,0,0,1-.41455-.09766l-2.708-1.292a.99985.99985,0,1,1,.86133-1.80469l2.51123,1.19824L58.47461,52a1.00309,1.00309,0,0,1,.48242.1333l1.36768.78662,1.11719-.15967a.997.997,0,0,1,.84668.28076l1.48779,1.479a.99986.99986,0,0,1,.167,1.19824,24.01722,24.01722,0,0,1-1.64746,2.54492l1.28564,1.79932a2.492,2.492,0,0,1-.26709,3.2207L62.2832,64.31494a2.49058,2.49058,0,0,1-3.22119.26611L57.2627,63.2959c-.61182.45313-1.24463.87744-1.89307,1.26855l.498,2.15137a2.49061,2.49061,0,0,1-1.479,2.87354l-1.34717.55811a2.48947,2.48947,0,0,1-3.07812-.98633l-1.16846-1.87256c-.73828.18311-1.48633.33105-2.23633.44287l-.36328,2.17969A2.49188,2.49188,0,0,1,43.72949,72Zm13.354-21.4585a1.00364,1.00364,0,0,1-.4082-.08691l-1.69189-.75635L52.22363,49.001a1.00023,1.00023,0,1,1,.49023-1.93945l2.84375.71875a1.02342,1.02342,0,0,1,.16309.05664l1.44287.645,3.52295-.97412,3.0542-.58643a.89671.89671,0,0,1,.21143-.01709l1.43066.03418a21.93539,21.93539,0,0,0,.335-2.63574,1.00074,1.00074,0,0,1,.78418-.91113l2.88037-.63086a.49859.49859,0,0,0,.39258-.51367l-.07373-1.45654a.49867.49867,0,0,0-.44287-.47168l-2.9292-.33691a1.00092,1.00092,0,0,1-.87207-.82812,21.94041,21.94041,0,0,0-.84473-3.36426.99919.99919,0,0,1,.37549-1.14014l2.41748-1.68408a.499.499,0,0,0,.166-.625l-.62549-1.31787a.49929.49929,0,0,0-.58887-.26611l-2.8335.80859a.99832.99832,0,0,1-1.12109-.4292,22.02063,22.02063,0,0,0-2.07373-2.78125,1.00041,1.00041,0,0,1-.08984-1.19775l1.59131-2.48486a.49837.49837,0,0,0-.08545-.64111l-1.082-.978a.50107.50107,0,0,0-.647-.02l-2.31055,1.834a.99936.99936,0,0,1-1.20117.03174,22.2291,22.2291,0,0,0-2.97705-1.78369.99968.99968,0,0,1-.53955-1.07129l.51855-2.8999a.49847.49847,0,0,0-.32471-.55957l-1.37354-.48926a.503.503,0,0,0-.605.228l-1.43115,2.5752a1.00433,1.00433,0,0,1-1.09668.48926,21.91145,21.91145,0,0,0-3.43311-.50146,1.00074,1.00074,0,0,1-.91113-.78418l-.63086-2.88037a.50555.50555,0,0,0-.51367-.39258l-1.457.07373a.49811.49811,0,0,0-.47119.44189l-.3374,2.92969a1.00145,1.00145,0,0,1-.82764.87207,21.87894,21.87894,0,0,0-3.36475.8457,1.00125,1.00125,0,0,1-1.14062-.37646l-1.68359-2.41748a.49906.49906,0,0,0-.625-.16553l-1.31738.62549a.49922.49922,0,0,0-.2666.58887l.80908,2.833a.99964.99964,0,0,1-.42871,1.12061A22.12243,22.12243,0,0,0,29.293,26.2749a1.00181,1.00181,0,0,1-1.19824.08984l-2.48437-1.59131a.4991.4991,0,0,0-.64062.08545l-.978,1.082a.49739.49739,0,0,0-.02051.64551l1.834,2.312a.99989.99989,0,1,1-1.56641,1.24316l-1.834-2.31152a2.49085,2.49085,0,0,1,.10352-3.23l.978-1.082a2.4908,2.4908,0,0,1,3.20264-.4292l1.8623,1.19287c.58838-.4834,1.19922-.939,1.82715-1.3623l-.60645-2.124a2.49168,2.49168,0,0,1,1.332-2.94434l1.31738-.62549a2.49184,2.49184,0,0,1,3.12354.8291l1.26221,1.812c.72754-.22021,1.4668-.40625,2.21094-.55566l.25244-2.19482a2.492,2.492,0,0,1,2.35693-2.21094l1.457-.07373a2.4857,2.4857,0,0,1,2.56885,1.9624l.47266,2.15771c.75635.07373,1.51074.18408,2.25586.32959l1.07275-1.93018a2.49256,2.49256,0,0,1,3.02393-1.14014l1.374.48926a2.49176,2.49176,0,0,1,1.62207,2.79541l-.38867,2.17383c.667.35791,1.3208.74951,1.95459,1.17139l1.73242-1.375a2.49488,2.49488,0,0,1,3.23.10254l1.08252.979a2.49145,2.49145,0,0,1,.42871,3.20313l-1.19238,1.8623c.48389.58887.93945,1.19971,1.3623,1.82666l2.12354-.606a2.493,2.493,0,0,1,2.94482,1.33105l.62549,1.31836a2.49213,2.49213,0,0,1-.82959,3.12354l-1.81152,1.26172c.22021.728.40625,1.46729.55566,2.21094l2.19482.25244A2.49282,2.49282,0,0,1,71.69824,40.689l.07373,1.45654a2.49241,2.49241,0,0,1-1.96143,2.56885l-2.15869.47314a24.022,24.022,0,0,1-.48535,2.99316.98459.98459,0,0,1-.999.77734l-2.15674-.05176-2.87012.54785L57.3501,50.50537A1.011,1.011,0,0,1,57.0835,50.5415Z" style="fill:#6d6daa"/><path d="M29.05814,32.247a18.71247,18.71247,0,0,1,13.80342-7.39161A18,18,0,0,1,61.748,41.92292c.02558.5057.01605,1.00462.00014,1.50191a17.99179,17.99179,0,0,0-18.735-15.57329A18.74235,18.74235,0,0,0,30.57941,33.611Z" style="fill:#7690a8;opacity:0.30000000000000004"/><path d="M28.65684,35.90609A19.21982,19.21982,0,0,0,25.07574,45.5C25.03473,45.00415,25,44.50635,25,44a19.08254,19.08254,0,0,1,2.25192-8.95231Z" style="fill:#7690a8;opacity:0.30000000000000004"/><path d="M56,45.79309V42.20685L52.91638,41.179a10.24576,10.24576,0,0,0-.90967-2.19647l1.45361-2.90692-2.53589-2.53589-2.907,1.45361A10.24252,10.24252,0,0,0,45.821,34.0835L44.79315,31h-3.5863L40.179,34.0835a10.243,10.243,0,0,0-2.19647.90979l-2.907-1.45361-2.53589,2.53589,1.45361,2.90692a10.24266,10.24266,0,0,0-.90967,2.19647L30,42.20685v3.58624L33.08362,46.821a10.24573,10.24573,0,0,0,.90967,2.19653l-1.45361,2.90686,2.53589,2.53589,2.907-1.45361a10.23973,10.23973,0,0,0,2.19647.90973L41.20685,57h3.5863L45.821,53.91638a10.23924,10.23924,0,0,0,2.19641-.90973l2.907,1.45361,2.53589-2.53589-1.45361-2.90686a10.24884,10.24884,0,0,0,.90967-2.19653ZM43,49a5,5,0,1,1,5-5A5.00009,5.00009,0,0,1,43,49Z" style="fill:#eef6ff"/><path d="M56,45.79313V42.20687l-3.08361-1.02792a10.24818,10.24818,0,0,0-.90966-2.19645l1.45361-2.90691L50.92445,33.5397l-2.907,1.45361a10.24079,10.24079,0,0,0-2.19645-.90978L44.79313,31H41.20687L40.179,34.08353a10.24111,10.24111,0,0,0-2.19649.90978l-2.907-1.45361-2.53589,2.53589,1.45361,2.90691a10.24413,10.24413,0,0,0-.90966,2.19645L30,42.20687v3.58627L33.08361,46.821a10.24477,10.24477,0,0,0,.90966,2.19653l-1.45361,2.90691,2.53589,2.53589,2.907-1.45361a10.24087,10.24087,0,0,0,2.19649.9097L41.20687,57h3.58627L45.821,53.91639a10.24055,10.24055,0,0,0,2.19645-.9097l2.907,1.45361,2.53589-2.53589L52.00673,49.0175a10.24882,10.24882,0,0,0,.90966-2.19653ZM43,49a5,5,0,1,1,5-5A5.00005,5.00005,0,0,1,43,49Z" style="fill:none"/><path d="M43,63A19.02161,19.02161,0,0,1,24,44a20.17052,20.17052,0,0,1,2.33594-9.35937.9999.9999,0,0,1,1.76953.93164A18.167,18.167,0,0,0,26,44a17.00192,17.00192,0,0,0,31.52393,8.83984,1,1,0,0,1,1.707,1.042A18.88053,18.88053,0,0,1,43,63ZM60.87793,49.44727a1.00115,1.00115,0,0,1-.9502-1.3125A17.01027,17.01027,0,0,0,42.91211,25.854a17.70719,17.70719,0,0,0-12.92432,6.82764,1.00012,1.00012,0,1,1-1.56934-1.24023A19.7045,19.7045,0,0,1,42.811,23.85693,19.0113,19.0113,0,0,1,61.82813,48.75879,1.00094,1.00094,0,0,1,60.87793,49.44727Z" style="fill:#6d6daa"/><path d="M44.75,36a14.16605,14.16605,0,0,1,7.63275,2.23041l1.07758-2.15485-2.53589-2.53589-2.907,1.45361A10.24252,10.24252,0,0,0,45.821,34.0835L44.79315,31h-3.5863L40.179,34.0835a10.243,10.243,0,0,0-2.19647.90979l-2.907-1.45361-2.53589,2.53589,1.45361,2.90692a10.24266,10.24266,0,0,0-.90967,2.19647L30,42.20685v3.58624l1.10254.36749A14.25088,14.25088,0,0,1,44.75,36Z" style="fill:#fff"/><path d="M56,45.79309V42.20685L52.91638,41.179a10.24576,10.24576,0,0,0-.90967-2.19647l1.45361-2.90692-2.53589-2.53589-2.907,1.45361A10.24252,10.24252,0,0,0,45.821,34.0835L44.79315,31h-3.5863L40.179,34.0835a10.243,10.243,0,0,0-2.19647.90979l-2.907-1.45361-2.53589,2.53589,1.45361,2.90692a10.24266,10.24266,0,0,0-.90967,2.19647L30,42.20685v3.58624L33.08362,46.821a10.24573,10.24573,0,0,0,.90967,2.19653l-1.45361,2.90686,2.53589,2.53589,2.907-1.45361a10.23973,10.23973,0,0,0,2.19647.90973L41.20685,57h3.5863L45.821,53.91638a10.23924,10.23924,0,0,0,2.19641-.90973l2.907,1.45361,2.53589-2.53589-1.45361-2.90686a10.24884,10.24884,0,0,0,.90967-2.19653ZM43,49a5,5,0,1,1,5-5A5.00009,5.00009,0,0,1,43,49Z" style="fill:none"/><path d="M44.793,58H41.207a1,1,0,0,1-.94873-.68359l-.86572-2.59717a11.37292,11.37292,0,0,1-1.42187-.58838L35.52295,55.355a1.00111,1.00111,0,0,1-1.1543-.1875l-2.53613-2.53613a.99968.99968,0,0,1-.1875-1.1543l1.22412-2.44775a11.37292,11.37292,0,0,1-.58838-1.42187l-2.59717-.86572A1,1,0,0,1,29,45.793V42.207a1.00043,1.00043,0,0,1,.68359-.94873l2.59717-.86621a11.33582,11.33582,0,0,1,.58838-1.42139L31.645,36.52295a.99968.99968,0,0,1,.1875-1.1543l2.53613-2.53613a.99763.99763,0,0,1,1.1543-.1875l2.44775,1.22412a11.37292,11.37292,0,0,1,1.42188-.58838l.86572-2.59717A1,1,0,0,1,41.207,30H44.793a1,1,0,0,1,.94873.68359l.86572,2.59717a11.37292,11.37292,0,0,1,1.42188.58838L50.47705,32.645a1.00021,1.00021,0,0,1,1.1543.1875l2.53613,2.53613a.99968.99968,0,0,1,.1875,1.1543L53.13086,38.9707a11.33582,11.33582,0,0,1,.58838,1.42139l2.59717.86621A1.00043,1.00043,0,0,1,57,42.207V45.793a1,1,0,0,1-.68359.94873l-2.59717.86572a11.37292,11.37292,0,0,1-.58838,1.42188L54.355,51.47705a.99968.99968,0,0,1-.1875,1.1543l-2.53613,2.53613a1.002,1.002,0,0,1-1.1543.1875L48.0293,54.13086a11.37292,11.37292,0,0,1-1.42187.58838l-.86572,2.59717A1,1,0,0,1,44.793,58Zm-2.86523-2h2.14453l.7998-2.3999a1.00009,1.00009,0,0,1,.67529-.64551,9.29386,9.29386,0,0,0,1.98291-.8208,1.00305,1.00305,0,0,1,.93457-.02148l2.26221,1.13135,1.5166-1.5166L51.1123,49.46484a.99876.99876,0,0,1,.02148-.93457,9.29386,9.29386,0,0,0,.8208-1.98291,1.00009,1.00009,0,0,1,.64551-.67529L55,45.07227V42.92773l-2.3999-.80029a1.00009,1.00009,0,0,1-.64551-.67529,9.27955,9.27955,0,0,0-.8208-1.98242.99876.99876,0,0,1-.02148-.93457l1.13135-2.26221-1.5166-1.5166L48.46484,35.8877a.99886.99886,0,0,1-.93457-.02148,9.29386,9.29386,0,0,0-1.98291-.8208,1.00009,1.00009,0,0,1-.67529-.64551L44.07227,32H41.92773l-.7998,2.3999a1.00009,1.00009,0,0,1-.67529.64551,9.29386,9.29386,0,0,0-1.98291.8208.99873.99873,0,0,1-.93457.02148l-2.26221-1.13135-1.5166,1.5166,1.13135,2.26221a.99876.99876,0,0,1-.02148.93457,9.27955,9.27955,0,0,0-.8208,1.98242,1.00009,1.00009,0,0,1-.64551.67529L31,42.92773v2.14453l2.3999.7998a1.00009,1.00009,0,0,1,.64551.67529,9.29386,9.29386,0,0,0,.8208,1.98291.99876.99876,0,0,1,.02148.93457l-1.13135,2.26221,1.5166,1.5166,2.26221-1.13135a1.00289,1.00289,0,0,1,.93457.02148,9.29386,9.29386,0,0,0,1.98291.8208,1.00009,1.00009,0,0,1,.67529.64551ZM56,45.793h0ZM43,50a6,6,0,1,1,6-6A6.00656,6.00656,0,0,1,43,50Zm0-10a4,4,0,1,0,4,4A4.00458,4.00458,0,0,0,43,40Z" style="fill:#6d6daa"/><path d="M33.6875,39.938a1.00359,1.00359,0,0,1-.73877-.32617c-.56982-.39307-3.38672-2.03271-5.96484-3.49658l-2.26172-.65479a1.00182,1.00182,0,0,1-.39307-.21875l-1.98-1.791a1.00011,1.00011,0,1,1,1.3418-1.4834l1.80859,1.63623,2.15332.62354a.9965.9965,0,0,1,.21582.09082c6.896,3.91211,6.896,3.91211,6.81787,4.7124a1.00947,1.00947,0,0,1-.68262.856A.99611.99611,0,0,1,33.6875,39.938Z" style="fill:#6d6daa"/><path d="M32.54053,37.07568a.999.999,0,0,1-.83154-.44287l-1.52246-2.26953-1.75146-1.4624-2.63379-.7749a1.00041,1.00041,0,0,1-.55811-.41748L24.18164,30.062a1,1,0,0,1,1.68066-1.084l.86035,1.334,2.47607.72852a1.00174,1.00174,0,0,1,.35889.19189l2.021,1.6875a1.00828,1.00828,0,0,1,.18945.21045l1.60205,2.38818a1,1,0,0,1-.82959,1.55713Z" style="fill:#6d6daa"/><path d="M67.39,66.39491a23.0132,23.0132,0,0,0-2.70928,2.412l-2.61314-1.37048a1.5,1.5,0,0,0-1.89246.42274l-.88061,1.16275a1.5,1.5,0,0,0,.10592,1.93621l2.02734,2.144a23.0248,23.0248,0,0,0-1.58755,3.26147l-2.93412-.26584a1.50018,1.50018,0,0,0-1.58673,1.11484l-.36865,1.41128a1.50009,1.50009,0,0,0,.83889,1.74837l2.68927,1.203a22.8811,22.8811,0,0,0-.2118,3.62179l-2.8151.87811a1.49993,1.49993,0,0,0-1.03925,1.63715l.19951,1.44491a1.49987,1.49987,0,0,0,1.444,1.2942l2.94773.08238a22.88187,22.88187,0,0,0,1.18536,3.42893l-2.26265,1.88673a1.50009,1.50009,0,0,0-.3337,1.91028l.73729,1.25845a1.5,1.5,0,0,0,1.82935.64315l2.75242-1.051a23.02954,23.02954,0,0,0,2.412,2.70928l-1.37049,2.61308a1.5,1.5,0,0,0,.42274,1.89246l1.16276.88067a1.5,1.5,0,0,0,1.9362-.106l2.144-2.02728A23.027,23.027,0,0,0,72.88076,106.16l-.26589,2.93419a1.5,1.5,0,0,0,1.11483,1.58661l1.41134.36859a1.49994,1.49994,0,0,0,1.74832-.83882l1.203-2.68921a22.874,22.874,0,0,0,3.62179.2118l.87812,2.81516a1.5,1.5,0,0,0,1.63715,1.03925l1.44491-.19951a1.49987,1.49987,0,0,0,1.2942-1.444l.08237-2.94779a22.87475,22.87475,0,0,0,3.42893-1.18536l1.88672,2.26259a1.49988,1.49988,0,0,0,1.91015.33366l1.2587-.73726a1.5,1.5,0,0,0,.64315-1.82935l-1.05108-2.75234a23.03113,23.03113,0,0,0,2.70929-2.41193l2.61307,1.37043a1.5,1.5,0,0,0,1.89247-.42268l.88066-1.16282A1.5,1.5,0,0,0,103.117,98.525l-2.02733-2.14391a23.023,23.023,0,0,0,1.58748-3.26153l2.93423.26576a1.50007,1.50007,0,0,0,1.58667-1.11483l.36861-1.41116a1.5,1.5,0,0,0-.83883-1.74838l-2.68933-1.203a22.86766,22.86766,0,0,0,.21179-3.62185l2.81516-.87812a1.49987,1.49987,0,0,0,1.03926-1.63709l-.19951-1.44491a1.49993,1.49993,0,0,0-1.444-1.29426l-2.94779-.08237a22.8669,22.8669,0,0,0-1.18535-3.42887l2.26271-1.88674a1.5,1.5,0,0,0,.33364-1.91027l-.73725-1.25858a1.50021,1.50021,0,0,0-1.82947-.64314l-2.75235,1.051a23.01829,23.01829,0,0,0-2.41192-2.70923l1.37048-2.61314a1.5,1.5,0,0,0-.42274-1.89246l-1.16281-.8806a1.5,1.5,0,0,0-1.93621.10592l-2.14391,2.02733A23.02137,23.02137,0,0,0,89.6367,63.3231l.2659-2.93413a1.50018,1.50018,0,0,0-1.11484-1.58673l-1.41128-.36865a1.50014,1.50014,0,0,0-1.74838.83883l-1.203,2.68933A22.87476,22.87476,0,0,0,80.80329,61.75l-.87812-2.81516a1.49987,1.49987,0,0,0-1.63708-1.0392l-1.44491.19951a1.5,1.5,0,0,0-1.29427,1.444l-.08237,2.94779a22.874,22.874,0,0,0-3.42887,1.18535c-.00615.036-.554.86991-.246,1.47363A9.67464,9.67464,0,0,0,74.5,67.54167l.45833,6.41667L71.77083,71.875l-.6875-3.14583L69.35417,69.25ZM81.66908,87.71339a3,3,0,1,1,2.56146-3.38215A3,3,0,0,1,81.66908,87.71339Z" style="fill:#ced8ee"/><path d="M79.75414,73.845a11,11,0,1,0,12.40121,9.392A11,11,0,0,0,79.75414,73.845Zm1.91494,13.86842a3,3,0,1,1,2.56146-3.38215A3,3,0,0,1,81.66908,87.71339Z" style="fill:#eef6ff"/><path d="M82.76333,95.6382a11.99482,11.99482,0,0,1-13.22076-8.77411,12.00024,12.00024,0,1,0,23.5691-3.25441A11.99487,11.99487,0,0,1,82.76333,95.6382Z" style="fill:#2c4b75;opacity:0.2"/><g style="opacity:0.2"><path d="M82.353,92.6664A10.99358,10.99358,0,0,1,70.27,84.74468a11.00031,11.00031,0,1,0,21.56722-2.978A10.99363,10.99363,0,0,1,82.353,92.6664Z" style="fill:#2c4b75"/></g><g style="opacity:0.5"><path d="M80.16448,76.81678a10.99357,10.99357,0,0,1,12.083,7.92172,11.00031,11.00031,0,1,0-21.56722,2.978A10.99353,10.99353,0,0,1,80.16448,76.81678Z" style="fill:#fff"/></g><path d="M73.06705,66.346a24.02854,24.02854,0,0,1,30.06909,11.35449,22.96028,22.96028,0,0,0-.80809-2.17992l2.26271-1.88674a1.5,1.5,0,0,0,.33364-1.91027l-.73725-1.25858a1.50021,1.50021,0,0,0-1.82947-.64314l-2.75235,1.051a23.01829,23.01829,0,0,0-2.41192-2.70923l1.37048-2.61314a1.5,1.5,0,0,0-.42274-1.89246l-1.16281-.8806a1.5,1.5,0,0,0-1.93621.10592l-2.14391,2.02733A23.02137,23.02137,0,0,0,89.6367,63.3231l.2659-2.93413a1.50018,1.50018,0,0,0-1.11484-1.58673l-1.41128-.36865a1.50014,1.50014,0,0,0-1.74838.83883l-1.203,2.68933A22.87476,22.87476,0,0,0,80.80329,61.75l-.87812-2.81516a1.49987,1.49987,0,0,0-1.63708-1.0392l-1.44491.19951a1.5,1.5,0,0,0-1.29427,1.444l-.08237,2.94779a22.874,22.874,0,0,0-3.42887,1.18535L71.5625,65.3125Z" style="fill:#fff"/><path d="M67.39,66.39491a23.0132,23.0132,0,0,0-2.70928,2.412l-2.61314-1.37048a1.5,1.5,0,0,0-1.89246.42274l-.88061,1.16275a1.5,1.5,0,0,0,.10592,1.93621l2.02734,2.144a23.0248,23.0248,0,0,0-1.58755,3.26147l-2.93412-.26584a1.50018,1.50018,0,0,0-1.58673,1.11484l-.36865,1.41128a1.50009,1.50009,0,0,0,.83889,1.74837l2.68927,1.203a22.9799,22.9799,0,0,0-.187,2.31744A24.081,24.081,0,0,1,68.76379,68.5515Z" style="fill:#fff"/><g style="opacity:0.2"><path d="M57.92911,95.86681l2.26265-1.88673a22.9799,22.9799,0,0,1-.808-2.18,24.00182,24.00182,0,0,0,44.84431-6.192,22.96026,22.96026,0,0,1-.18711,2.31733l2.68933,1.203a1.5,1.5,0,0,1,.83883,1.74838l-.36859,1.41128a1.50021,1.50021,0,0,1-1.58673,1.11484l-2.93418-.26583a23.01829,23.01829,0,0,1-1.58749,3.26147l2.02734,2.144a1.5,1.5,0,0,1,.10592,1.93621l-.88067,1.16276a1.5,1.5,0,0,1-1.89246.42274l-2.61308-1.37049a23.02136,23.02136,0,0,1-2.70928,2.412l1.05107,2.75228a1.50018,1.50018,0,0,1-.64314,1.82947l-1.25857.73731a1.50014,1.50014,0,0,1-1.91027-.33364l-1.88674-2.26271a22.87476,22.87476,0,0,1-3.42893,1.18536l-.08237,2.94779a1.49987,1.49987,0,0,1-1.29421,1.444l-1.44491.19951a1.5,1.5,0,0,1-1.63714-1.03919l-.87812-2.81516a22.874,22.874,0,0,1-3.62179-.2118l-1.203,2.68933a1.50014,1.50014,0,0,1-1.74838.83883l-1.41128-.36865a1.50018,1.50018,0,0,1-1.11484-1.58673l.2659-2.93413a23.0132,23.0132,0,0,1-3.26153-1.58754l-2.144,2.02734a1.5,1.5,0,0,1-1.93621.10592l-1.16275-.88061a1.5,1.5,0,0,1-.42274-1.89246l1.37048-2.61314a23.0248,23.0248,0,0,1-2.412-2.70922l-2.75229,1.051a1.50018,1.50018,0,0,1-1.82947-.64314l-.73731-1.25857A1.50009,1.50009,0,0,1,57.92911,95.86681Z" style="fill:#2c4b75"/></g><g style="opacity:0.5"><path d="M97.19342,68.16359l1.37048-2.61314a1.5,1.5,0,0,0-.42274-1.89246l-.48957-.37072L83.15516,82.42835A2.99076,2.99076,0,0,1,79.546,87.19392L65.04953,106.335l.48952.37079a1.5,1.5,0,0,0,1.9362-.106l2.144-2.02728c.12245.072.25191.13188.37571.2016L97.4893,68.47061C97.38858,68.37034,97.29591,68.26194,97.19342,68.16359Z" style="fill:#fff"/><path d="M72.03766,63.67221a22.874,22.874,0,0,1,3.42887-1.18535l.08237-2.94779a1.5,1.5,0,0,1,1.29427-1.444l1.44491-.19951a1.49987,1.49987,0,0,1,1.63708,1.0392L80.80329,61.75a22.87476,22.87476,0,0,1,3.62185.21179l1.203-2.68933a1.50014,1.50014,0,0,1,1.74838-.83883l1.41128.36865A1.50018,1.50018,0,0,1,89.9026,60.389l-.2659,2.93413a22.99672,22.99672,0,0,1,3.09138,1.49625L79.428,82.38083a2.99225,2.99225,0,0,0-.93777,1.23824L65.19006,101.18054a23.00125,23.00125,0,0,1-2.278-2.57023l-2.75242,1.051a1.5,1.5,0,0,1-1.82935-.64315L57.593,97.75967a1.50009,1.50009,0,0,1,.3337-1.91028l2.26265-1.88673A22.88187,22.88187,0,0,1,59.004,90.53373l-2.94773-.08238a1.49987,1.49987,0,0,1-1.444-1.2942l-.19951-1.44491A1.49993,1.49993,0,0,1,55.452,86.07509l2.8151-.87811a22.8811,22.8811,0,0,1,.2118-3.62179l-2.68927-1.203a1.50009,1.50009,0,0,1-.83889-1.74837l.36865-1.41128a1.50018,1.50018,0,0,1,1.58673-1.11484l2.93412.26584a23.0248,23.0248,0,0,1,1.58755-3.26147l-2.02734-2.144a1.5,1.5,0,0,1-.10592-1.93621l.88061-1.16275a1.5,1.5,0,0,1,1.89246-.42274l2.61314,1.37048a23.0132,23.0132,0,0,1,2.70928-2.412l1.71415,2.68842,2.08333-.16667.54167,3.41667,3.1875,1.54167-.5-7.04167L71.8125,65.22917Z" style="fill:#fff"/></g><path d="M84.01807,112.60205a2.48985,2.48985,0,0,1-2.38037-1.75635L80.98,108.73682c-.75928-.0083-1.52051-.05322-2.27637-.1333l-.90186,2.01514a2.49432,2.49432,0,0,1-2.91357,1.39795l-1.41113-.36816a2.49232,2.49232,0,0,1-1.8584-2.644l.19971-2.19971c-.6958-.29883-1.38135-.63281-2.04932-.99756l-1.60693,1.519a2.49165,2.49165,0,0,1-3.22705.17627l-1.16211-.87988a2.49262,2.49262,0,0,1-.70459-3.15479l1.02686-1.958c-.53223-.54346-1.03906-1.11279-1.51562-1.70215l-2.06348.7876a2.4906,2.4906,0,0,1-3.04883-1.07129l-.73682-1.25879a2.4906,2.4906,0,0,1,.55615-3.18408l1.69531-1.41357c-.28223-.70605-.53125-1.42676-.74512-2.15479l-2.2085-.062a2.49014,2.49014,0,0,1-2.40674-2.15674l-.19971-1.44482a2.49246,2.49246,0,0,1,1.73291-2.72852l2.10889-.6582c.00781-.75879.05273-1.52051.13281-2.27588l-2.01514-.90186a2.49171,2.49171,0,0,1-1.39844-2.91309L54.35156,76.96a2.49138,2.49138,0,0,1,2.64453-1.8584l2.19971.19971c.29834-.69531.63184-1.38037.99756-2.04932L58.67383,71.645a2.4921,2.4921,0,0,1-.17676-3.22656l.88135-1.16309a2.4896,2.4896,0,0,1,3.15381-.7041l1.958,1.02686a24.04309,24.04309,0,0,1,2.29639-1.98047,1.00015,1.00015,0,0,1,1.45508.27295L69.627,68.11914l1.37793-.4458a.99967.99967,0,0,1,1.30615.8999l.16016,3.09424c1.75293,1.05225,3.61426,2.12646,3.96826,2.2583a1.01633,1.01633,0,0,1,.61328,1.26855.98453.98453,0,0,1-1.229.63428c-.63867-.20166-3.59814-1.97119-4.84131-2.72266a1.00083,1.00083,0,0,1-.481-.8042l-.12012-2.32422-.88623.28662a1.00112,1.00112,0,0,1-1.15918-.42725l-1.20508-1.95605a22.00062,22.00062,0,0,0-1.72852,1.61865.99906.99906,0,0,1-1.186.19336L61.603,68.32227a.49752.49752,0,0,0-.63037.14014L60.09131,69.626a.49842.49842,0,0,0,.03564.645l2.02734,2.144A1.00028,1.00028,0,0,1,62.29,73.60889a22.04574,22.04574,0,0,0-1.51855,3.11963,1.0059,1.0059,0,0,1-1.02148.63135l-2.93408-.26611a.50857.50857,0,0,0-.5293.37158l-.36816,1.41113a.49788.49788,0,0,0,.2793.58252l2.68945,1.20361a.99965.99965,0,0,1,.58252,1.0498,21.86676,21.86676,0,0,0-.20264,3.46338,1.00009,1.00009,0,0,1-.70215.97559L55.75,87.02979a.49872.49872,0,0,0-.34668.5459l.19971,1.44482a.49715.49715,0,0,0,.48047.43115l2.94824.08252a1.0003,1.0003,0,0,1,.94043.74854A21.939,21.939,0,0,0,61.106,93.5625a1.0009,1.0009,0,0,1-.27588,1.16846l-2.2627,1.88672a.49677.49677,0,0,0-.11133.63623l.73682,1.25879a.49978.49978,0,0,0,.60986.21436l2.75293-1.05078a1.00012,1.00012,0,0,1,1.15381.33008,22.00043,22.00043,0,0,0,2.30713,2.59131,1.00037,1.00037,0,0,1,.19336,1.186L64.83936,104.397a.49878.49878,0,0,0,.14111.63135l1.16211.87988a.49973.49973,0,0,0,.64551-.03516l2.144-2.02686a1.00173,1.00173,0,0,1,1.19385-.13574,22.1115,22.1115,0,0,0,3.12012,1.51855,1.00044,1.00044,0,0,1,.63086,1.02148l-.26611,2.93408a.49759.49759,0,0,0,.37109.52832l1.41162.36865a.49763.49763,0,0,0,.58252-.2793l1.20361-2.689a.9938.9938,0,0,1,1.0498-.58252,21.55046,21.55046,0,0,0,3.46436.20264.99635.99635,0,0,1,.9751.70215l.87793,2.81494a.49722.49722,0,0,0,.54541.34619l1.44531-.19922a.499.499,0,0,0,.43164-.48145l.082-2.94775a1.00019,1.00019,0,0,1,.749-.94043,21.89717,21.89717,0,0,0,3.2793-1.1333,1.00019,1.00019,0,0,1,1.16846.27588l1.88672,2.2627a.49827.49827,0,0,0,.63672.11133l1.2583-.7373a.4985.4985,0,0,0,.21436-.61035l-1.05078-2.75146a1.00083,1.00083,0,0,1,.33008-1.1543,22.1767,22.1767,0,0,0,2.59229-2.30713,1.001,1.001,0,0,1,1.18555-.19336l2.61279,1.37061a.49627.49627,0,0,0,.63135-.14111l.88086-1.1626a.49912.49912,0,0,0-.03613-.64551l-2.02686-2.144a1.00028,1.00028,0,0,1-.13574-1.19385,22.13621,22.13621,0,0,0,1.519-3.11963.9973.9973,0,0,1,1.021-.63086l2.93408.26563a.5049.5049,0,0,0,.5293-.37158l.36865-1.41113a.4996.4996,0,0,0-.28076-.583l-2.68848-1.20215a1.00121,1.00121,0,0,1-.58252-1.05029,21.99194,21.99194,0,0,0,.20264-3.46436,1.00068,1.00068,0,0,1,.70215-.9751l2.81494-.87793a.4978.4978,0,0,0,.34619-.54541l-.19922-1.44531a.49847.49847,0,0,0-.481-.43164l-2.94775-.08252a.99973.99973,0,0,1-.94043-.74854,21.93321,21.93321,0,0,0-1.13379-3.2793,1.0009,1.0009,0,0,1,.27588-1.16846l2.2627-1.88672a.49847.49847,0,0,0,.11133-.63672l-.7373-1.25879a.4989.4989,0,0,0-.60937-.21436L99.9624,71.80713a.99932.99932,0,0,1-1.1543-.33057,22.1034,22.1034,0,0,0-2.30713-2.5918.99965.99965,0,0,1-.19336-1.18555l1.37061-2.61328a.49779.49779,0,0,0-.14062-.63037l-1.16309-.88135a.4985.4985,0,0,0-.64551.03564l-2.14355,2.02734a1.00067,1.00067,0,0,1-1.19385.13574,22.05407,22.05407,0,0,0-3.12012-1.51855,1.00106,1.00106,0,0,1-.63086-1.02148l.26563-2.93408a.49843.49843,0,0,0-.37158-.5293l-1.41113-.36865a.49779.49779,0,0,0-.583.28027l-1.20215,2.689a.99689.99689,0,0,1-1.05029.58252A21.52477,21.52477,0,0,0,80.82422,62.75a1.00023,1.00023,0,0,1-.97559-.70215l-.87793-2.81494a.49537.49537,0,0,0-.5459-.34668L76.98,59.08594a.49808.49808,0,0,0-.43164.481l-.08252,2.94775a.99973.99973,0,0,1-.74854.94043,21.95956,21.95956,0,0,0-2.86475.95752l-.13525.42822,2.144,1.00342a.999.999,0,0,1,.57373.83936l.25,3.75a.99977.99977,0,1,1-1.99512.13281L73.479,67.40527l-2.40283-1.12451a1.0005,1.0005,0,0,1-.52979-1.207l.5376-1.70264a1.00113,1.00113,0,0,1,.55322-.61523,24.07785,24.07785,0,0,1,2.8501-1.03613l.062-2.2085a2.49149,2.49149,0,0,1,2.15723-2.40674l1.44482-.19971a2.49192,2.49192,0,0,1,2.72852,1.73291l.65771,2.10889c.75928.00781,1.52051.05273,2.27637.13281l.90088-2.01514a2.495,2.495,0,0,1,2.91406-1.39844l1.41162.36914a2.49253,2.49253,0,0,1,1.85791,2.64453l-.19922,2.19922c.69531.29834,1.38086.63232,2.04932.99756L94.355,62.15674a2.48976,2.48976,0,0,1,3.22754-.17627l1.1626.88086a2.49131,2.49131,0,0,1,.70459,3.15332l-1.02734,1.959c.5332.54443,1.04,1.11426,1.51563,1.70215l2.063-.78809A2.49426,2.49426,0,0,1,105.0498,69.959l.7373,1.25928a2.4929,2.4929,0,0,1-.55566,3.18359l-1.6958,1.41406c.28223.70557.53125,1.42627.74512,2.1543l2.2085.062A2.493,2.493,0,0,1,108.896,80.189l.19922,1.44531a2.49112,2.49112,0,0,1-1.73242,2.72852l-2.10889.65771c-.0083.75928-.05273,1.52051-.1333,2.27637l2.01563.90088a2.49417,2.49417,0,0,1,1.39844,2.91406l-.36914,1.41162a2.50347,2.50347,0,0,1-2.64453,1.85791l-2.19922-.19922c-.29932.6958-.63281,1.38086-.99756,2.04883l1.51953,1.60693a2.49333,2.49333,0,0,1,.17676,3.22656l-.88135,1.16357a2.49183,2.49183,0,0,1-3.15381.70459l-1.9585-1.02734q-.81665.79907-1.70215,1.51563l.78809,2.0625a2.49309,2.49309,0,0,1-1.07227,3.04932l-1.2583.7373a2.49062,2.49062,0,0,1-3.18359-.55615l-1.41406-1.69531c-.70605.28223-1.42676.53125-2.15479.74463l-.06152,2.2085a2.49315,2.49315,0,0,1-2.15674,2.40723l-1.44531.19922A2.55453,2.55453,0,0,1,84.01807,112.60205Z" style="fill:#6d6daa"/><path d="M81.2334,96.74365a12.01367,12.01367,0,1,1,1.6665-.11475A12.22419,12.22419,0,0,1,81.2334,96.74365Zm.03223-22.00244a10.00014,10.00014,0,1,0,9.89893,8.63232A10.01827,10.01827,0,0,0,81.26563,74.74121Z" style="fill:#6d6daa"/><path d="M81.25049,88.74219a4.00052,4.00052,0,1,1,3.9707-4.54785h0a4.00035,4.00035,0,0,1-3.41553,4.50977A4.09582,4.09582,0,0,1,81.25049,88.74219Zm.01318-6.001a2.00043,2.00043,0,0,0-1.2124,3.59473,2.00012,2.00012,0,1,0,1.2124-3.59473Z" style="fill:#6d6daa"/><path d="M95.12646,104.08838a.99462.99462,0,0,1-.56689-.17676l-2.54395-1.75488a1.00021,1.00021,0,0,1-.2959-1.32715l.918-1.57422-1.93408-.08984a1.00016,1.00016,0,0,1-.95312-.96777l-.06592-2.10254-2.1748-1.22363a1,1,0,1,1,.98047-1.74316l2.6665,1.5a.99965.99965,0,0,1,.50928.84033l.05469,1.7417,2.65918.124a1.0003,1.0003,0,0,1,.81738,1.50293l-1.28271,2.19922,1.78076,1.22852a1,1,0,0,1-.56885,1.82324Z" style="fill:#6d6daa"/><path d="M72.167,49.4165a1,1,0,0,1-.64111-1.76758c.64014-.53467,1.27246-1.06934,1.87109-1.60547a1,1,0,0,1,1.334,1.49023c-.61523.55078-1.26514,1.10107-1.92383,1.65039A.99477.99477,0,0,1,72.167,49.4165Z" style="fill:#6d6daa"/><path d="M76.1582,45.71191a1,1,0,0,1-.75244-1.6582,8.76045,8.76045,0,0,0,1.28223-1.832.9999.9999,0,1,1,1.791.88965,10.68622,10.68622,0,0,1-1.56738,2.25879A.99852.99852,0,0,1,76.1582,45.71191Z" style="fill:#6d6daa"/><path d="M45.04541,85.65869a1,1,0,0,1-.81348-1.58008c.45508-.63965.98193-1.32373,1.56592-2.03271a1.00005,1.00005,0,0,1,1.54395,1.27148c-.5542.67285-1.05225,1.31934-1.481,1.92139A.99841.99841,0,0,1,45.04541,85.65869Z" style="fill:#6d6daa"/><path d="M48.48242,81.48926a1,1,0,0,1-.73633-1.67627q.81665-.88989,1.74219-1.83691a1,1,0,0,1,1.43066,1.39746q-.90308.92358-1.69922,1.792A.99781.99781,0,0,1,48.48242,81.48926Z" style="fill:#6d6daa"/><path d="M72.66748,53.5a1,1,0,0,1-.47461-1.88086,54.31717,54.31717,0,0,0,8.10693-5.51562,1.00011,1.00011,0,1,1,1.25,1.56152,56.2914,56.2914,0,0,1-8.40967,5.71582A.99572.99572,0,0,1,72.66748,53.5Zm11.32715-8.18018a1,1,0,0,1-.65576-1.75537q.9917-.8606,1.99023-1.76465a1.00011,1.00011,0,1,1,1.3418,1.4834q-1.0144.917-2.02148,1.792A.99658.99658,0,0,1,83.99463,45.31982Z" style="fill:#6d6daa"/><path d="M76.75,54.917a1.0003,1.0003,0,0,1-.34131-1.94043q.46069-.16772.92236-.34277a.99989.99989,0,0,1,.71094,1.86914q-.47534.18091-.95068.35352A.99706.99706,0,0,1,76.75,54.917Z" style="fill:#6d6daa"/><path d="M80.91113,53.25a1.00035,1.00035,0,0,1-.40186-1.9165q.783-.34277,1.56445-.709a1,1,0,0,1,.84766,1.81152q-.8042.37646-1.60937.72949A.99873.99873,0,0,1,80.91113,53.25Z" style="fill:#6d6daa"/><path d="M85.62012,50.97412a1.00005,1.00005,0,0,1-.46924-1.88379q.43506-.23.86914-.46729a.99971.99971,0,0,1,.96,1.75391q-.446.24463-.89258.481A.9957.9957,0,0,1,85.62012,50.97412Z" style="fill:#6d6daa"/><path d="M39.50439,80.93408a1.00034,1.00034,0,0,1-.29785-1.95508q.45264-.14136.90332-.30322a.99979.99979,0,1,1,.67871,1.88086q-.49146.178-.98535.33154A1.00764,1.00764,0,0,1,39.50439,80.93408Z" style="fill:#6d6daa"/><path d="M43.71582,79.166a1,1,0,0,1-.46826-1.88428q.75293-.39771,1.49854-.854a.9998.9998,0,1,1,1.043,1.70605q-.7998.48926-1.60693.9165A.99713.99713,0,0,1,43.71582,79.166Z" style="fill:#6d6daa"/><path d="M48.21582,76.24609a1,1,0,0,1-.61084-1.792q.38306-.2959.76514-.60547a.99975.99975,0,0,1,1.25977,1.55273q-.40137.32593-.8042.63672A.99515.99515,0,0,1,48.21582,76.24609Z" style="fill:#6d6daa"/><path d="M67.917,55.0835a1.00169,1.00169,0,0,1-.94922-1.31592,6.39045,6.39045,0,0,0,.20264-.78027,6.02239,6.02239,0,0,0-1.00928-.15381,1.00741,1.00741,0,0,1-.98584-1.01123.99266.99266,0,0,1,.99121-.98877c.02441,0,2.44971.01367,2.92871,1.21191a3.71144,3.71144,0,0,1-.23,2.35449A.99993.99993,0,0,1,67.917,55.0835Zm-.45068-1.99561h0Z" style="fill:#6d6daa"/><path d="M91.5415,40.9585a1,1,0,0,1,0-2,.625.625,0,1,0-.625-.625,1,1,0,0,1-2,0,2.625,2.625,0,1,1,2.625,2.625Z" style="fill:#6d6daa"/><path d="M91.7915,50.375a2.62818,2.62818,0,0,1-2.625-2.625,1,1,0,0,1,2,0,.625.625,0,1,0,.625-.625,1,1,0,0,1,0-2,2.625,2.625,0,1,1,0,5.25Z" style="fill:#6d6daa"/><path d="M34.6665,84.5a2.62818,2.62818,0,0,1-2.625-2.625,1,1,0,0,1,2,0,.625.625,0,1,0,.625-.625,1,1,0,0,1,0-2,2.625,2.625,0,0,1,0,5.25Z" style="fill:#6d6daa"/><path d="M41.53906,92.375a2.60719,2.60719,0,0,1-.8999-.16016.99991.99991,0,1,1,.6875-1.87793.62508.62508,0,1,0-.37207-.80176,1.00008,1.00008,0,1,1-1.87793-.68848,2.62507,2.62507,0,1,1,2.4624,3.52832Z" style="fill:#6d6daa"/><path d="M80.5415,39.9585a2.625,2.625,0,1,1,2.625-2.625,1,1,0,0,1-2,0,.625.625,0,1,0-.625.625,1,1,0,0,1,0,2Z" style="fill:#6d6daa"/><path d="M69.33252,63.8335a.995.995,0,0,1-.51367-.14258c-1.98437-1.19043-2.08594-1.49658-2.18457-1.79248-.1084-.32471-.20264-.60645.86133-3.12158a.99994.99994,0,1,1,1.8418.7793c-.23779.5625-.50146,1.23779-.6499,1.67236.31006.21777.7749.51611,1.16064.74756a1,1,0,0,1-.51562,1.85742Z" style="fill:#6d6daa"/></svg>