<svg id="Layer_1" fill="#FF6F91" enable-background="new 0 0 512 512" height="512" viewBox="0 0 512 512" width="512" xmlns="http://www.w3.org/2000/svg"><g><path fill="#FF6F91" d="m111.384 272.067c32.169 0 61.099 13.587 81.416 35.319v-195.986c0-53.24-43.16-96.4-96.4-96.4s-96.4 43.16-96.4 96.4v272.083c0-61.648 49.86-111.416 111.384-111.416z"/><path d="m497 239.933h-274.2v142.523c0 43.64-34.846 79.85-78.484 80.274-44.065.427-80.049-35.294-80.049-79.263 0-26.074 21.103-47.133 47.133-47.133 25.831 0 46.876 20.888 47.131 46.66.08 8.109-6.201 15.092-14.302 15.458-8.573.387-15.65-6.425-15.695-14.902-.04-7.353-4.459-14.063-11.461-16.309-11.891-3.813-22.806 4.926-22.806 16.226 0 27.031 21.883 49.047 48.863 49.265 28.14.227 50.47-23.611 49.633-51.739-1.306-43.882-37.234-78.926-81.363-78.926-45.037 0-81.4 36.436-81.4 81.384 0 62.625 50.924 113.549 113.518 113.549h353.482c8.284 0 15-6.716 15-15v-227.067c0-8.284-6.716-15-15-15z"/></g></svg>