<svg height="512" viewBox="0 0 64 64" width="512" xmlns="http://www.w3.org/2000/svg"><g id="Blue"><path d="m28 15h12a0 0 0 0 1 0 0v6a4 4 0 0 1 -4 4h-8a0 0 0 0 1 0 0v-10a0 0 0 0 1 0 0z" fill="#d65db1"/><path d="m25 43-9 1-3-12h-4l1 15a3.991 3.991 0 0 0 3.938 4l11.062 2z" fill="#de7dc0"/><path d="m35 18h2v2h-2z" fill="#d65db1"/><path d="m32 7h4v12h-4z" fill="#fff" transform="matrix(0 1 -1 0 47 -21)"/><path d="m36 3a0 0 0 0 1 0 0v12a0 0 0 0 1 0 0 4 4 0 0 1 -4-4v-4a4 4 0 0 1 4-4z" fill="#de7dc0" transform="matrix(0 1 -1 0 43 -25)"/><path d="m34 3h2a0 0 0 0 1 0 0v4a0 0 0 0 1 0 0h-2a2 2 0 0 1 -2-2 2 2 0 0 1 2-2z" fill="#de7dc0" transform="matrix(0 1 -1 0 39 -29)"/><path d="m36 11h4v4h-4z" fill="#fff" transform="matrix(0 1 -1 0 51 -25)"/><path d="m28 15a4 4 0 0 1 4 4 0 0 0 0 1 0 0h-4a0 0 0 0 1 0 0v-4a0 0 0 0 1 0 0z" fill="#de7dc0" transform="matrix(0 1 -1 0 47 -13)"/><path d="m37 25h-9v9l2 4 12 1 1-7a4.383 4.383 0 0 0 -2-5z" fill="#de7dc0"/><path d="m30 38-3 3 10 4 5-6z" fill="#f5d7ec"/><path d="m37 45v3l14 3a3 3 0 0 1 3 3 3 3 0 0 1 -3 3h-22a7 7 0 0 1 -7-7 10.231 10.231 0 0 1 3-7l2-2z" fill="#de7dc0"/><path d="m13 32h-4v-7l4 3z" fill="#f5d7ec"/><path d="m32.8 25.8-11.8-11.8a2.828 2.828 0 0 0 -4 0l-7 9a2.122 2.122 0 0 0 0 3 2.122 2.122 0 0 0 3 0l6-8 9 11 1 1a2.687 2.687 0 0 0 4.237-.321 3.074 3.074 0 0 0 -.437-3.879z" fill="#f5d7ec"/><g fill="#d65db1"><path d="m32.971 52.238-1.942-.476a6.215 6.215 0 0 1 5.953-4.762l.036 2a4.293 4.293 0 0 0 -2.429.808 4.342 4.342 0 0 0 -1.618 2.43z"/><path d="m38.354 35.011c-.136 0-.274 0-.414-.013a7.246 7.246 0 0 1 -3.482-1.158l1.084-1.68a5.281 5.281 0 0 0 2.518.84 5.691 5.691 0 0 0 4.232-1.708l1.416 1.412a7.853 7.853 0 0 1 -5.354 2.307z"/><path d="m13.586 44h2.828v2h-2.828z" transform="matrix(.707 -.707 .707 .707 -27.426 23.787)"/></g><path d="m3 57h58v4h-58z" fill="#de7dc0"/><path d="m35 18h2v2h-2z" fill="#d65db1"/><path d="m61 56h-6.556a3.959 3.959 0 0 0 .556-2 4.006 4.006 0 0 0 -3.887-4l-13.113-2.809v-1.829l4.756-5.732a.969.969 0 0 0 .234-.488l.991-6.948a5.372 5.372 0 0 0 -2.534-6.089l-2.377-1.188a4.975 4.975 0 0 0 1.93-3.917v-10a5.009 5.009 0 0 0 -4-4.9v-1.1a3 3 0 0 0 -6 0v1.1a5.009 5.009 0 0 0 -4 4.9v7.586l-5.293-5.293a3.832 3.832 0 0 0 -5.414 0 1.224 1.224 0 0 0 -.083.093l-6.965 8.956a3.091 3.091 0 0 0 -.837 1.863.992.992 0 0 0 -.408.795v7 .066l1 14.934a4.977 4.977 0 0 0 4.846 5l7.938 1.431a8.028 8.028 0 0 0 1.942 2.569h-20.726a1 1 0 0 0 -1 1v4a1 1 0 0 0 1 1h58a1 1 0 0 0 1-1v-4a1 1 0 0 0 -1-1zm-24.3-12.2-7.92-3.166 1.6-1.6 9.622.8zm-23.1-16.6-.26-.2a3.125 3.125 0 0 0 .366-.3.951.951 0 0 0 .094-.1l5.235-6.979 7.965 9.728v4.651a1 1 0 0 0 .105.447l1.678 3.353-4.242 4.242-7.783.865-2.758-11.031v-3.876a1 1 0 0 0 -.4-.8zm26.9.666a3.332 3.332 0 0 1 1.563 3.641 5.588 5.588 0 0 1 -4 1.494 5.281 5.281 0 0 1 -2.518-.842l-1.084 1.68a7.246 7.246 0 0 0 3.479 1.161c.14.009.278.013.414.013a7.176 7.176 0 0 0 3.326-.844l-.536 3.758-10.5-.875-1.644-3.288v-2.5a3.8 3.8 0 0 0 2.042.618c.111 0 .222 0 .332-.015a3.642 3.642 0 0 0 2.688-1.623 3.994 3.994 0 0 0 .12-4.244h2.582zm-1.5-13.866h-2v-2h2zm-6-9a1 1 0 0 1 2 0v1h-2zm-1 3h4a3.006 3.006 0 0 1 2.829 2h-9.658a3.006 3.006 0 0 1 2.829-2zm-3 4h6v2h-6zm0 4h1.829a3.018 3.018 0 0 1 -1.829 1.829zm0 3.9a5.016 5.016 0 0 0 3.9-3.9h6.1v5a3 3 0 0 1 -3 3h-3.586l-3.414-3.414zm-18.293 3.807a1.224 1.224 0 0 0 .083-.093l6.957-8.946a1.831 1.831 0 0 1 2.546.039l11.8 11.8a2.085 2.085 0 0 1 .321 2.607 1.654 1.654 0 0 1 -1.223.763 1.879 1.879 0 0 1 -1.483-.583l-.933-.926-9-11a1 1 0 0 0 -.775-.368h-.021a1 1 0 0 0 -.779.4l-5.95 7.934a1.122 1.122 0 0 1 -1.543-1.627zm-.707 3.514a3.091 3.091 0 0 0 .655.268l1.345 1.011v2.5h-2zm11 22.779a7.905 7.905 0 0 0 .112 1.277l-6.995-1.261a.948.948 0 0 0 -.177-.016 3.028 3.028 0 0 1 -2.94-3.066l-.931-13.934h2.15l2.673 10.693-1.6 1.6 1.414 1.414 1.752-1.752 6.281-.7a10.9 10.9 0 0 0 -1.739 5.745zm2 0a9.273 9.273 0 0 1 2.707-6.293l1.534-1.534 8.759 3.504v1.423a6.207 6.207 0 0 0 -2.589 1.092 6.273 6.273 0 0 0 -2.382 3.57l1.942.476a4.342 4.342 0 0 1 1.618-2.43 4.247 4.247 0 0 1 2.336-.8l13.866 2.971a.976.976 0 0 0 .209.021 2 2 0 0 1 0 4h-22a6.006 6.006 0 0 1 -6-6zm37 10h-56v-2h56z" fill="#d65db1"/></g></svg>